<?xml version="1.0" encoding="UTF-8" standalone="no"?>
<!-- Created with Inkscape (http://www.inkscape.org/) -->

<svg
   width="80"
   height="32"
   viewBox="0 0 21.166666 8.4666666"
   version="1.1"
   id="svg1"
   inkscape:version="1.4.2 (ebf0e940d0, 2025-05-08)"
   sodipodi:docname="Decoration.svg"
   xmlns:inkscape="http://www.inkscape.org/namespaces/inkscape"
   xmlns:sodipodi="http://sodipodi.sourceforge.net/DTD/sodipodi-0.dtd"
   xmlns:xlink="http://www.w3.org/1999/xlink"
   xmlns="http://www.w3.org/2000/svg"
   xmlns:svg="http://www.w3.org/2000/svg">
  <sodipodi:namedview
     id="namedview1"
     pagecolor="#b4b4b4"
     bordercolor="#000000"
     borderopacity="0.25"
     inkscape:showpageshadow="2"
     inkscape:pageopacity="0.0"
     inkscape:pagecheckerboard="0"
     inkscape:deskcolor="#d1d1d1"
     inkscape:document-units="px"
     inkscape:zoom="8.3526375"
     inkscape:cx="18.317567"
     inkscape:cy="18.976042"
     inkscape:window-width="1920"
     inkscape:window-height="1008"
     inkscape:window-x="0"
     inkscape:window-y="0"
     inkscape:window-maximized="1"
     inkscape:current-layer="layer1" />
  <defs
     id="defs1">
    <linearGradient
       id="linearGradient15"
       inkscape:collect="always">
      <stop
         style="stop-color:#000000;stop-opacity:1;"
         offset="0"
         id="stop15" />
      <stop
         style="stop-color:#000000;stop-opacity:0;"
         offset="1"
         id="stop16" />
    </linearGradient>
    <linearGradient
       inkscape:collect="always"
       xlink:href="#linearGradient15"
       id="linearGradient16"
       x1="4.4237539"
       y1="2.0102881"
       x2="8.1867443"
       y2="2.0102881"
       gradientUnits="userSpaceOnUse" />
  </defs>
  <g
     inkscape:label="Slānis 1"
     inkscape:groupmode="layer"
     id="layer1">
    <path
       style="fill:#ff0000;fill-opacity:0.504278;stroke-width:0.264583"
       id="path1"
       d="M 1.8579385,4.533434 C 1.8201535,4.526514 1.7954345,4.52016 1.7537379,4.524094 1.6558529,4.533334 1.5616783,4.571052 1.4802181,4.6249426 c -0.029275,0.019367 -0.055786,0.042617 -0.083679,0.063925 -0.058747,0.062843 -0.079695,0.07959 -0.1261124,0.1504317 -0.016475,0.025143 -0.030519,0.051819 -0.04474,0.078304 -0.012038,0.022418 -0.02275,0.045523 -0.034005,0.068343 -0.010538,0.021368 -0.019407,0.043621 -0.031374,0.064223 -0.010935,0.018825 -0.024759,0.035813 -0.037139,0.05372 -0.014768,0.015978 -0.02896,0.032506 -0.044304,0.047931 -0.021047,0.021156 -0.044258,0.040126 -0.064816,0.06176 -0.0213644,0.022482 -0.0408267,0.046702 -0.0608005,0.070428 -0.0547098,0.064987 -0.1017914,0.1296239 -0.14967013,0.199593 -0.0403799,0.066844 -0.0729278,0.1388057 -0.0910229,0.2150647 -0.0122293,0.051539 -0.0130191,0.084791 -0.0194807,0.135356 -0.002305,0.018029 -0.00521,0.035975 -0.007816,0.053963 -0.001741,0.017119 -0.002934,0.034301 -0.005227,0.051354 -0.0109577,0.081514 -0.008175,0.027347 -0.0154287,0.1121064 -0.002662,0.031101 -0.00461,0.088788 -0.006819,0.1196324 -0.001707,0.02382 -0.004117,0.047583 -0.006175,0.071375 -0.0149516,0.1607352 -0.0419028,0.326358 1.8148e-4,0.4856837 0.009194,0.034808 0.0254839,0.067344 0.0382257,0.1010158 0.042428,0.076876 0.0961807,0.1473102 0.16599786,0.201385 0.0271625,0.021037 0.0588846,0.034264 0.0873446,0.053082 -0.001405,3.175e-4 -0.003628,-3.44e-4 -0.004217,9.525e-4 -0.009807,0.021921 -9.0752e-4,0.052893 0.003195,0.072238 0.009505,0.044812 0.0256604,0.090553 0.0470611,0.1309881 0.0114363,0.021609 0.0262966,0.041222 0.039445,0.061833 0.019873,0.022339 0.03749,0.046909 0.059618,0.067016 0.071091,0.064597 0.1581872,0.1002993 0.2498872,0.1240404 0.032088,0.00831 0.064324,0.016986 0.097265,0.020669 0.073048,0.00816 0.1466737,0.00986 0.2200106,0.014785 0.1594356,-0.00204 0.321691,0.00655 0.4773625,-0.035935 C 2.2110288,7.5189073 2.2583497,7.4923153 2.329817,7.4578373 2.4217822,7.4219455 2.4920066,7.349931 2.5800513,7.3074286 2.6078796,7.2939957 2.6801934,7.2674217 2.7070354,7.2572609 2.82546,7.225218 2.9404858,7.1818068 3.038425,7.10616 3.074972,7.077932 3.124716,7.026523 3.1568437,6.9946945 c 0.069799,-0.076952 0.1257351,-0.166547 0.1564847,-0.2662663 0.012128,-0.039336 0.022069,-0.093275 0.030267,-0.1336797 0.016031,-0.079797 0.038039,-0.1583973 0.048795,-0.239245 0.00551,-0.041447 0.00855,-0.098478 0.011277,-0.1403387 0.023238,-0.08747 0.043807,-0.1755801 0.067404,-0.2629537 0.00651,-0.024109 0.013975,-0.047979 0.019621,-0.072306 0.00582,-0.025048 0.00983,-0.050483 0.014743,-0.075725 C 3.5275549,5.6827017 3.5265415,5.5666063 3.4844543,5.4491376 3.4628881,5.388942 3.4408538,5.3585715 3.4082664,5.3050595 3.3501973,5.2105229 3.2529825,5.1576059 3.1680967,5.0915543 3.1658478,5.0898345 3.1351326,5.0667602 3.1313271,5.0624959 3.114907,5.0440968 3.1048486,5.0207277 3.0890998,5.0017515 3.0489223,4.953341 3.0364237,4.9473185 2.9871183,4.9072873 2.9288219,4.8672792 2.8603998,4.850136 2.7948377,4.8267892 c -0.025726,-0.00916 -0.05108,-0.019346 -0.076804,-0.028512 -0.013189,-0.00484 -0.026308,-0.00987 -0.039566,-0.014515 -0.033318,-0.011663 -0.037158,-0.010298 -0.068509,-0.026794 -0.047901,-0.025204 -0.038954,-0.027357 -0.091509,-0.04781 -0.017953,-0.00699 -0.036724,-0.011658 -0.055086,-0.017486 -0.044598,-0.00656 -0.087313,-0.023942 -0.1329289,-0.022984 -0.00954,2.008e-4 -0.028462,0.00127 -0.026589,0.010626 0.00127,0.00635 0.0063,0.011316 0.00945,0.016976 0.00647,0.011978 0.012949,0.023955 0.019423,0.035934 0.00201,0.00812 0.00266,0.016703 0.00603,0.02436 0.00199,0.00452 5.86e-5,-0.01012 -0.00178,-0.0147 -0.012312,-0.030632 -0.023681,-0.061967 -0.040459,-0.090399 -0.019105,-0.032374 -0.047885,-0.049378 -0.076857,-0.07064 -0.012266,-0.00651 -0.024116,-0.013861 -0.036798,-0.019513 -0.01119,-0.00499 -0.023116,-0.00813 -0.034629,-0.012319 -0.038914,-0.014161 -0.078508,-0.025892 -0.1176732,-0.039383 -0.023997,-0.00622 -0.025141,-0.00711 -0.047514,-0.010962 -0.00449,-7.673e-4 -0.00933,-1.717e-4 -0.01355,-0.0019 -0.00592,-0.00241 -0.01053,-0.00731 -0.016201,-0.010258 -0.026303,-0.013674 -0.029925,-0.013158 -0.058968,-0.021706 -0.015869,-0.0022 -0.034985,-0.00668 -0.051547,-0.00342 -0.00293,5.821e-4 -0.00542,0.00268 -0.00762,0.0047 -0.010617,0.00978 0.00656,0.013758 0.014955,0.021582 0.00291,0.00271 -0.0061,-0.00511 -0.00914,-0.00766 -0.014523,-0.013843 -0.2102818,0.1915481 -0.1957585,0.2053903 v 0 c 0.021536,0.011404 0.00145,1.206e-4 0.041643,0.031425 0.023706,0.01846 0.050493,0.033018 0.080767,0.036259 0.00732,3.968e-4 0.014637,0.00106 0.02197,0.00122 0.01236,2.509e-4 0.03338,-0.00143 0.045528,8.467e-4 0.011804,0.0022 0.022598,0.010893 0.034095,0.014274 0.020731,0.010152 0.038063,0.025342 0.057794,0.037248 0.010599,0.0064 0.021698,0.011922 0.032605,0.017777 0.043758,0.023482 0.023705,0.014571 0.071203,0.030274 0.00937,3.968e-4 0.019155,0.00401 0.028108,0.00122 0.033448,-0.010425 -0.009,-0.111883 -0.00264,-0.076285 0.00266,0.014891 0.00295,0.030413 0.008,0.04467 0.00686,0.019352 0.018271,0.036777 0.027406,0.055166 0.00922,0.011298 0.01766,0.023289 0.027673,0.033896 0.00437,0.00463 0.045682,0.040593 0.052378,0.045195 0.034716,0.023855 0.075386,0.032365 0.112963,0.050377 0.043826,0.014325 0.055976,0.019688 0.1026946,0.028834 0.016426,0.00321 0.033288,0.00389 0.049688,0.00724 0.034147,0.00696 0.06582,0.021336 0.098725,0.032207 0.021552,0.010176 0.043684,0.019177 0.064752,0.030318 0.012003,0.00635 0.023288,0.013975 0.035108,0.020659 0.039076,0.022095 0.078835,0.042919 0.1220726,0.055794 0.00111,2.1e-4 0.050498,0.00891 0.056454,0.012041 0.045393,0.02385 0.067829,0.080827 0.1050001,0.1142373 0.026837,0.025302 0.054336,0.050517 0.079716,0.077304 0.023487,0.024789 0.023894,0.027764 0.044918,0.053917 0.00843,0.010491 0.017087,0.020804 0.02563,0.031207 0.026292,0.043164 0.020743,0.031798 0.042541,0.07629 0.00486,0.00992 0.011184,0.019346 0.014094,0.030008 0.013078,0.047896 -3.439e-4,0.097288 -0.013205,0.1432777 -0.048143,0.1545195 -0.088411,0.3132796 -0.09347,0.4758364 -0.00441,0.1134441 -0.010247,0.2272197 -0.034519,0.338495 -0.00233,0.013084 -0.00357,0.026411 -0.00699,0.039253 -0.00611,0.022966 -0.019873,0.050481 -0.030633,0.071116 -0.017769,0.034079 -0.036664,0.065804 -0.06821,0.089022 -0.01225,0.00615 -0.023971,0.013486 -0.036751,0.018439 -0.1536285,0.05953 0.040676,-0.02709 -0.1364536,0.048001 -0.075867,0.032163 -0.095242,0.043767 -0.165282,0.08756 -0.025211,0.015764 -0.049749,0.032579 -0.074623,0.048868 -0.02065,0.013557 -0.041254,0.027183 -0.061951,0.040668 -0.027049,0.017621 -0.070858,0.04785 -0.1023394,0.060817 -0.017144,0.00706 -0.035335,0.011285 -0.053202,0.01624 -0.030905,0.00858 -0.094625,0.023297 -0.1245485,0.030371 -0.1539794,0.016481 0.010808,1.609e-4 -0.1629807,0.012727 -0.1410463,0.010197 -0.2812952,0.030593 -0.4227475,0.035251 0.00397,0.00565 0.018064,0.013816 0.011913,0.016965 -0.023272,0.011922 -0.051195,0.010679 -0.076744,0.016245 -0.017094,0.00373 -0.034143,0.00765 -0.05118,0.011631 -0.010687,0.00249 -0.021287,0.00536 -0.031988,0.0078 -0.00632,0.00143 -0.01259,0.00424 -0.019055,0.00382 -0.00562,-3.704e-4 -0.010515,-0.00405 -0.015772,-0.00607 -0.012367,-0.021167 -0.027559,-0.046216 -0.037918,-0.068224 -0.00744,-0.015796 -0.013298,-0.032291 -0.020435,-0.048223 -0.0076,-0.01696 -0.016126,-0.033489 -0.023762,-0.050431 -0.010369,-0.023003 -0.018536,-0.04704 -0.030247,-0.069389 -0.011625,-0.022185 -0.026387,-0.042583 -0.03958,-0.063875 -0.013041,-0.014288 -0.025602,-0.02903 -0.039122,-0.042866 -0.00773,-0.00791 -0.016524,-0.014706 -0.024561,-0.022302 -0.00578,-0.00546 -0.011118,-0.011369 -0.01687,-0.016857 -0.00428,-0.00409 -0.00983,-0.00701 -0.013227,-0.011859 -0.00828,-0.011811 -0.00833,-0.052532 -0.00863,-0.055897 -0.00222,-0.021042 -0.00412,-0.042121 -0.00666,-0.063127 -0.00325,-0.026896 -0.0079,-0.053622 -0.01072,-0.080567 -0.00337,-0.032253 -0.0042,-0.064746 -0.00785,-0.096968 -0.00974,-0.085909 -0.026708,-0.1709134 -0.04321,-0.2556999 -0.0025,-0.018269 -0.00646,-0.036397 -0.00751,-0.054807 -0.00169,-0.02956 0.00358,-0.072457 0.00626,-0.1017043 0.00335,-0.036474 0.00515,-0.07308 0.00855,-0.1095488 0.00165,-0.017711 0.00427,-0.035319 0.00641,-0.052979 0.00303,-0.046735 0.00232,-0.05018 0.00841,-0.093967 0.0011,-0.00791 0.00145,-0.016073 0.00412,-0.023601 0.013761,-0.038842 0.055433,-0.061294 0.081876,-0.089494 0.065349,-0.060864 0.1317743,-0.1219933 0.1884594,-0.1913017 0.063336,-0.07744 0.061422,-0.084296 0.1088216,-0.1713595 0.014962,-0.027482 0.030026,-0.054908 0.04504,-0.082362 0.020399,-0.044686 0.034858,-0.080041 0.059327,-0.1216301 0.036644,-0.062285 0.084166,-0.1151522 0.1462065,-0.1530688 0.018635,-0.01129 0.036849,-0.023302 0.055904,-0.033868 0.02123,-0.011771 0.043469,-0.02164 0.064868,-0.033101 0.070478,-0.03775 0.1382625,-0.080339 0.1962782,-0.1358847 0.018169,-0.01044 -0.1294973,-0.2673935 -0.1476666,-0.256952 z" />
    <path
       style="fill:#000000;stroke-width:0.264583"
       id="path2"
       d="m 0.6314473,0.69121752 c 0.001982,0.009588 0.002402,0.0196366 0.005942,0.0287651 0.005687,0.0146659 0.0137028,0.0283456 0.0214995,0.042007 0.0367923,0.0644651 0.0772021,0.10736329 0.13456698,0.15320587 0.0601834,0.0379133 0.0215815,0.0130966 0.11467134,0.0761858 C 0.9277415,1.0009173 1.0626035,0.72352476 1.0429889,0.71398857 v 0 c 0.033903,0.0478614 0.032406,0.0609345 0.029066,0.0267109 C 1.0258599,0.63337889 0.95710099,0.5499341 0.85143191,0.4966264 0.83767223,0.48107115 0.61768762,0.67566227 0.6314473,0.69121752 Z" />
    <path
       style="fill:#000000;stroke-width:0.264583"
       id="path3"
       d="m 0.88004144,2.5241147 c 0.003327,0.00595 0.006653,0.011907 0.00998,0.01786 C 0.90435684,2.5576397 1.125901,2.354908 1.1115657,2.3392425 v 0 c -0.00789,-0.00327 -0.015772,-0.00655 -0.023658,-0.00982 -0.013767,-0.014698 -0.2216328,0.1799946 -0.20786626,0.1946922 z" />
    <path
       style="fill:#000000;stroke-width:0.264583"
       id="path4"
       d="m 2.3226614,1.4123955 c 0.00447,0.018883 0.00712,0.038287 0.013402,0.056647 0.05309,0.1552609 0.1713227,0.2901813 0.2962582,0.3928887 0.036031,0.02962 0.075749,0.054445 0.1136241,0.081668 0.090817,0.047989 0.1130551,0.068198 0.2098757,0.089969 0.025567,0.00575 0.052102,0.00568 0.078153,0.00851 0.020505,0.012715 0.2003245,-0.2772747 0.1798193,-0.2899899 v 0 c -0.00309,-0.00818 -0.00434,-0.01732 -0.00927,-0.02455 C 3.1788864,1.689881 3.1251376,1.6416449 3.0961065,1.6132311 3.0649127,1.5856877 3.0347523,1.5569275 3.002525,1.5306009 2.9333155,1.4740634 2.8614039,1.4237789 2.7858307,1.3762071 2.7350849,1.3442638 2.6740942,1.3080259 2.616912,1.286074 2.603713,1.281004 2.589419,1.279464 2.575673,1.276164 2.566043,1.258273 2.3130287,1.394504 2.3226614,1.4123955 Z" />
    <path
       style="fill:#000000;stroke-width:0.264583"
       id="path5"
       d="m 0.94824517,2.8685654 c 0.008724,0.038774 0.0344855,0.074364 0.0571888,0.1060045 0.059853,0.083413 0.1222133,0.1438539 0.1953929,0.2152195 0.079907,0.067043 0.1645235,0.1308891 0.2613115,0.171909 0.0259,0.010978 0.053528,0.017314 0.080293,0.025974 0.02125,0.015343 0.238248,-0.2851746 0.2169981,-0.3005188 v 0 C 1.6827204,3.02457 1.6034001,2.96522 1.5274783,2.9016068 1.5242792,2.8992081 1.3746485,2.7869409 1.3691083,2.7830711 1.3447968,2.7660893 1.3194345,2.7506623 1.2944518,2.7346844 1.2723162,2.7205273 1.2507839,2.7053225 1.2277563,2.6926683 1.1935373,2.6738638 1.1671074,2.665704 1.1316974,2.6530824 1.1164605,2.6401104 0.93300824,2.8555931 0.94824517,2.8685654 Z" />
    <path
       style="fill:#000000;stroke-width:0.264583"
       id="path6"
       d="m 2.1203956,2.5323599 c 0.0055,0.011594 0.00949,0.024039 0.016512,0.034783 0.032391,0.049569 0.05779,0.071875 0.104929,0.1107276 0.070977,0.058499 0.1499835,0.104585 0.2287306,0.1514962 0.021887,0.019603 0.2991156,-0.2899301 0.2772282,-0.3095331 v 0 C 2.7211348,2.5015905 2.6952646,2.4821345 2.6678133,2.4651046 2.6420302,2.4491097 2.6149304,2.4353372 2.5882629,2.420865 2.5603565,2.4057205 2.5329659,2.3894832 2.5040998,2.3762592 2.4442884,2.3488588 2.38008,2.3313711 2.3152676,2.3211766 2.3003347,2.3073971 2.1054626,2.5185804 2.1203956,2.5323599 Z" />
    <path
       style="fill:#000000;stroke-width:0.264583"
       id="path7"
       d="m 2.0796624,0.58438123 c 0.028548,0.0597038 0.026543,0.0694635 0.079289,0.11687905 0.021272,0.0191228 0.046228,0.0336999 0.069342,0.0505498 0.020771,0.0165232 0.2544435,-0.27722073 0.2336727,-0.29374388 v 0 C 2.4200704,0.44587096 2.3780374,0.42789371 2.333602,0.4319756 2.3228253,0.41401936 2.0688857,0.56642499 2.0796624,0.58438123 Z" />
    <path
       style="fill:#000000;stroke-width:0.264583"
       id="path8"
       d="m 0.70085142,1.5833671 c 0.002837,0.00852 0.004246,0.017653 0.008512,0.025553 0.040059,0.074175 0.10306722,0.1261033 0.17396129,0.1696155 0.0297875,0.018282 0.0602592,0.035713 0.0921279,0.050063 0.0302342,0.013614 0.0624222,0.02239 0.0936333,0.033584 0.024699,0.015218 0.2399116,-0.3340851 0.2152122,-0.3493029 v 0 c -0.125957,-0.04968 -0.018861,-0.00922 -0.1512982,-0.054053 -0.024227,-0.0082 -0.047831,-0.018254 -0.072297,-0.025712 C 1.0103236,1.417758 0.95699314,1.4109962 0.90871737,1.3886742 0.89495049,1.3739759 0.68708454,1.5686687 0.70085142,1.5833671 Z" />
    <path
       style="fill:#000000;stroke-width:0.264583;fill-opacity:1"
       id="path9"
       d="m 2.8016467,3.3082986 c 0.00119,0.060023 0.028437,0.1140034 0.057231,0.1652818 0.031657,0.056378 0.053324,0.087919 0.096658,0.1361575 0.020963,0.023336 0.04402,0.044707 0.06603,0.06706 0.025059,0.017515 0.048836,0.037025 0.075177,0.052545 0.1047856,0.06174 0.2028029,0.075644 0.3258836,0.056422 0.023611,-0.00369 0.042833,-0.021209 0.06425,-0.031814 C 3.5062776,3.7419076 3.3359558,3.4675415 3.3165552,3.4795851 v 0 c -0.011216,-0.032239 -0.00624,-0.011382 0.080286,-0.00241 0.00305,3.175e-4 -0.00555,0.00425 -0.00853,0.00349 -0.00788,-0.00204 -0.015224,-0.00626 -0.021651,-0.011245 C 3.3553516,3.4606515 3.3459457,3.4496713 3.3355888,3.439796 3.1664256,3.2609824 3.4430869,3.5559312 3.2417324,3.3309485 3.1885667,3.2715443 3.127253,3.2203075 3.0559822,3.1841881 3.0472059,3.1662044 2.792871,3.2903043 2.8016464,3.3082886 Z" />
    <path
       style="fill:#6cb6c8;fill-opacity:1;stroke-width:0.264583"
       id="path13"
       d="m 9.0444128,1.5518681 c 0.040621,-0.025017 0.069669,-0.063371 0.102552,-0.096975 0.01157,-0.011822 0.023892,-0.022886 0.035611,-0.034559 0.010552,-0.01051 0.019976,-0.02219 0.031197,-0.031982 0.011409,-0.00996 0.02432,-0.018049 0.036479,-0.027073 0.013645,-0.00781 0.026408,-0.017427 0.040937,-0.023442 0.026459,-0.010954 0.098707,-0.027722 0.1247386,-0.035421 0.061531,-0.018198 0.1224431,-0.039594 0.1834226,-0.059588 0.044396,-0.014353 0.08213,-0.043121 0.1268146,-0.056748 0.013459,-0.00411 0.027584,-0.0056 0.041404,-0.00825 0.075876,-0.014567 0.045033,-0.00935 0.1286544,-0.018952 0.068966,-0.00601 0.133282,-0.030841 0.198858,-0.050554 0.01373,-0.00413 0.05427,-0.00463 0.04153,-0.011221 -0.008,-0.00412 -0.100672,-0.00102 -0.05542,-0.00242 0.05456,0.048226 0.113575,0.093325 0.155086,0.1542636 0.01303,0.019128 0.02341,0.039935 0.03511,0.059902 0.04646,0.080829 0.103938,0.1559352 0.170121,0.2217134 0.01681,0.016708 0.03315,0.034103 0.05185,0.048655 0.02179,0.016947 0.04613,0.03033 0.06919,0.045495 0.03106,0.012503 0.06019,0.031772 0.09318,0.037508 0.07799,0.013561 0.158889,0.00825 0.23732,0.00192 0.05981,-0.00482 0.118333,-0.010409 0.177398,-0.020888 0.06997,-0.00752 0.139979,-0.00171 0.209085,-0.017423 0.05818,-0.013228 0.07337,-0.023705 0.12864,-0.048833 0.04182,-0.024702 0.08717,-0.042555 0.129787,-0.065684 0.01961,-0.010641 0.03821,-0.02303 0.05747,-0.034298 0.03807,-0.02228 0.06444,-0.034648 0.09885,-0.061513 0.01332,-0.010398 0.02513,-0.022589 0.0377,-0.033883 0.04565,-0.057634 0.0696,-0.1159668 0.06496,-0.1939732 -0.0014,-0.023618 -0.01645,-0.044382 -0.02558,-0.066209 -0.0036,-0.00856 -0.01415,-0.022592 -0.0033,-0.00769 0.02953,-0.00173 0.0016,0.049987 0.02049,0.058057 0.0055,0.00234 0.0093,-0.00736 0.01362,-0.011481 0.02,-0.019309 0.03398,-0.041275 0.0484,-0.064869 0.01798,-0.034261 0.02008,-0.035428 0.03379,-0.076206 0.0048,-0.014186 0.007,-0.0291603 0.01221,-0.0432093 0.0037,-0.009936 0.0094,-0.018964 0.01412,-0.0284461 0.004,-0.0124817 0.0081,-0.0249632 0.01212,-0.0374448 C 11.927509,0.887619 11.608945,0.8207964 11.60422,0.843324 v 0 c -0.002,0.0115448 -0.0045,0.0230169 -0.006,0.0346344 -0.0016,0.0122767 -0.0024,0.0246481 -0.0034,0.0369901 -0.0011,0.0141269 8.73e-4,0.006763 -0.01279,0.0217829 -0.0517,0.0535957 -0.09814,0.1217626 -0.100659,0.1994212 -9e-4,0.027342 0.0072,0.054242 0.01074,0.081363 0.0067,0.013344 0.01227,0.027293 0.02004,0.040031 0.0032,0.00517 0.01157,0.019203 0.01245,0.013215 0.0021,-0.014439 -0.0093,-0.028497 -0.008,-0.043043 0.0025,-0.029852 0.0133,-0.058428 0.01891,-0.087853 0.0013,-0.00689 0.0071,-0.016382 0.0018,-0.020957 -0.0064,-0.00547 -0.01676,5.926e-4 -0.02514,8.916e-4 -0.0145,0.00464 -0.02934,0.00833 -0.0435,0.013935 -0.06064,0.023989 -0.11951,0.059494 -0.172868,0.09681 -0.01579,0.01104 -0.03002,0.024187 -0.04569,0.035387 -0.01042,0.00745 -0.02167,0.013664 -0.03251,0.020496 -0.0091,0.00286 -0.01804,0.00653 -0.02738,0.00858 -0.07579,0.016607 -0.153924,0.00405 -0.230524,0.00855 -0.02039,-1.89e-4 -0.0408,-0.00153 -0.06117,-5.662e-4 -0.02593,0.00123 -0.103433,0.010944 -0.129714,0.014878 -0.017,0.00255 -0.05037,-0.00835 -0.05082,0.00884 -4.49e-4,0.017202 0.03353,0.00777 0.05029,0.011653 -6.08e-4,0.00936 -0.0012,0.018712 -0.0018,0.028068 3.8e-5,0.013572 0.0016,0.016214 -0.01303,-0.010814 -0.0087,-0.016089 -0.01548,-0.033138 -0.0238,-0.049419 -0.0156,-0.030563 -0.05287,-0.098671 -0.07046,-0.125036 -0.01624,-0.024337 -0.03492,-0.046945 -0.05239,-0.070418 -0.01844,-0.020929 -0.03687,-0.041858 -0.05531,-0.062787 -0.01648,-0.020858 -0.03192,-0.042589 -0.04945,-0.0625751 -0.07563,-0.0862211 -0.155313,-0.14796577 -0.263126,-0.18939013 -0.02468,-0.00832 -0.04821,-0.0215146 -0.07402,-0.0249601 -0.111194,-0.0148429 -0.2669603,-0.008074 -0.3768698,0.0274022 -0.025326,0.008175 -0.049318,0.0200141 -0.073977,0.0300211 -0.045295,0.0243369 -0.09307,0.055368 -0.1433039,0.0694109 -0.04438,0.0124063 -0.090455,-0.003858 -0.1352344,0.007357 -0.082707,0.0149542 -0.1661207,0.0319131 -0.2429724,0.0677447 -0.079283,0.0369654 -0.142957,0.0938395 -0.2112748,0.14690813 -0.026574,0.024194 -0.08181,0.072827 -0.1050224,0.100577 -0.047338,0.056591 -0.083066,0.1251416 -0.09438,0.1982921 -0.00941,0.018566 0.253147,0.1516807 0.2625595,0.1331149 z" />
    <path
       style="fill:#6cb6c8;fill-opacity:1;stroke-width:0.264583"
       id="path14"
       d="m 9.1480263,2.8868684 c 0.0078,-0.00515 0.016447,-0.00922 0.02341,-0.015457 0.00967,-0.00867 0.016798,-0.019854 0.026096,-0.028914 0.010586,-0.010316 0.022622,-0.019045 0.033448,-0.029107 0.013272,-0.012335 0.02521,-0.026083 0.038809,-0.038053 0.026576,-0.023392 0.055712,-0.043704 0.083515,-0.065623 0.034344,-0.035043 0.07632,-0.060982 0.1120095,-0.094444 0.018116,-0.00864 0.022362,-0.029092 0.035302,-0.042025 0.00257,-0.00257 0.00663,-0.00303 0.00994,-0.00455 0.083296,0.013272 0.1577824,-0.030323 0.2297639,-0.065347 0.010253,-0.00546 0.019598,-0.013158 0.030759,-0.016371 0.019772,-0.00569 0.091886,-0.00948 0.108581,-0.011483 0.025972,-0.00312 0.097682,-0.015459 0.1228823,-0.021657 0.01652,-0.00406 0.0325,-0.010057 0.04875,-0.015085 -0.05112,-0.00153 0.06192,-0.016329 0.04572,-0.020276 -0.02654,-0.00647 -0.05486,-0.00317 -0.08135,-0.00982 -0.0071,-0.00179 -0.01079,-0.00993 -0.016346,-0.014715 -0.00106,-9.023e-4 0.00196,0.00197 0.00281,0.00306 0.0026,0.00334 0.0051,0.0068 0.0076,0.010203 0.02797,0.044724 -0.0031,-0.00304 0.03267,0.045127 0.0092,0.012434 0.01679,0.026121 0.02664,0.038077 0.0255,0.030947 0.06095,0.063815 0.09332,0.086518 0.01987,0.013932 0.04176,0.024713 0.06264,0.03707 0.02142,0.00981 0.04229,0.020921 0.06425,0.029442 0.0736,0.028555 0.03627,0.0043 0.09863,0.035632 0.01064,0.00535 0.02039,0.012322 0.03066,0.018362 0.03164,0.018608 0.02698,0.015766 0.05649,0.031599 0.01536,0.00931 0.02838,0.021519 0.03613,0.038125 0.0068,0.014489 0.0099,0.030642 0.01769,0.04458 0.0142,0.025281 0.02939,0.050331 0.04808,0.072495 0.01814,0.021505 0.04112,0.038412 0.06168,0.057618 0.08291,0.06016 0.177564,0.096775 0.278749,0.1109991 0.04201,0.00591 0.08449,0.00786 0.126701,0.012144 0.112912,0.00401 0.227482,6.35e-4 0.336696,-0.031599 0.05655,-0.016687 0.08002,-0.029702 0.134114,-0.054269 0.105351,-0.049915 0.195074,-0.1236372 0.272555,-0.2097823 0.05309,-0.060634 0.113886,-0.1136132 0.17182,-0.1694951 0.03511,-0.037168 0.07492,-0.069364 0.10905,-0.1074773 0.01011,-0.011282 0.01834,-0.024227 0.02902,-0.03496 0.01167,-0.011728 0.0252,-0.02145 0.03781,-0.032176 0.04711,-0.047714 0.02498,-0.024068 0.06661,-0.070705 0.01437,-0.020031 -0.268918,-0.2231926 -0.283284,-0.2031614 v 0 c -0.05134,0.055108 -0.02788,0.026427 -0.07069,0.085789 -0.0078,0.014 -0.01469,0.028546 -0.0234,0.042 -0.02936,0.045358 -0.07601,0.074193 -0.117299,0.1071587 -0.02657,0.022752 -0.04472,0.036998 -0.06872,0.063051 -0.03233,0.035087 -0.05864,0.076774 -0.09866,0.1042111 -0.07464,0.046244 -0.149558,0.092686 -0.23007,0.1282267 -0.01323,0.00574 -0.02612,0.012364 -0.0397,0.01723 -0.04152,0.014883 -0.0868,0.023376 -0.130505,0.028211 -0.01479,0.00164 -0.04935,-0.010639 -0.04452,0.00344 0.0051,0.014949 0.03147,0.00294 0.04721,0.00441 -0.01099,7.143e-4 -0.02202,0.00337 -0.03296,0.00214 -0.0091,-0.00101 -0.08077,-0.023725 -0.08295,-0.024366 -0.05105,-0.014991 -0.103083,-0.0255 -0.153915,-0.041224 -0.01155,-4.762e-4 -0.02333,-0.00372 -0.03466,-0.0014 -0.0067,0.00138 -0.0098,0.012462 -0.01661,0.011917 -0.01678,-0.00135 -0.02423,-0.048732 -0.02486,-0.050587 -0.01864,-0.055193 -0.01784,-0.047982 -0.04688,-0.1032897 -0.03449,-0.049135 -0.04214,-0.067418 -0.09226,-0.1057727 -0.06628,-0.050716 -0.147379,-0.080493 -0.228834,-0.094772 -0.01589,-0.00358 -0.04697,-0.00948 -0.06224,-0.017015 -0.008,-0.00394 -0.05523,-0.037106 -0.06087,-0.042013 -0.0095,-0.00822 -0.01731,-0.018133 -0.02596,-0.0272 -0.01011,-0.00848 -0.02022,-0.016953 -0.03033,-0.02543 -0.01983,-0.017164 -0.08923,-0.076434 -0.108331,-0.082232 -0.06587,-0.019996 -0.1561191,-0.021112 -0.2272884,-0.028726 -0.022431,0.00154 -0.045062,0.00125 -0.067293,0.00462 -0.040608,0.00614 -0.110394,0.02556 -0.1478275,0.041677 -0.1162754,0.050061 -0.017322,0.016242 -0.1108162,0.065428 -0.01215,0.00639 -0.025821,0.00935 -0.038729,0.014018 -0.070641,0.030257 -0.1472753,0.047336 -0.2109526,0.092768 -0.00976,0.00452 -0.019037,0.010246 -0.029265,0.013559 -0.078694,0.025487 0.032122,-0.023498 -0.07051,0.019052 -0.06076,0.025191 -0.1148643,0.063171 -0.1674905,0.1019866 -0.020778,0.018647 -0.042949,0.035847 -0.062331,0.05594 -0.067536,0.070013 -0.1272212,0.1618064 -0.1395973,0.2605791 -0.00188,0.015049 -3.89e-5,0.030334 -5.85e-5,0.045502 -0.00471,0.01978 0.2750413,0.086398 0.2797519,0.066616 z" />
    <path
       style="fill:#2de900;fill-opacity:1;stroke-width:0.264583;stroke:url(#linearGradient16)"
       d="M 7.72757,3.5278036 8.1867443,2.1614797 7.5371806,2.5086604 7.5595791,1.1199377 6.8204203,1.9374922 5.7004828,0.49277256 5.7116821,2.3070716 4.6925388,1.1423364 4.4237539,3.3486137 Z"
       id="path15" />
  </g>
</svg>
