<?xml version="1.0" encoding="UTF-8" standalone="no"?>
<!-- Created with Inkscape (http://www.inkscape.org/) -->

<svg
   width="73.746666mm"
   height="19.378325mm"
   viewBox="0 0 73.746666 19.378325"
   version="1.1"
   id="svg1"
   inkscape:version="1.4.2 (ebf0e940d0, 2025-05-08)"
   sodipodi:docname="Logo.svg"
   xmlns:inkscape="http://www.inkscape.org/namespaces/inkscape"
   xmlns:sodipodi="http://sodipodi.sourceforge.net/DTD/sodipodi-0.dtd"
   xmlns="http://www.w3.org/2000/svg"
   xmlns:svg="http://www.w3.org/2000/svg">
  <sodipodi:namedview
     id="namedview1"
     pagecolor="#ffffff"
     bordercolor="#000000"
     borderopacity="0.25"
     inkscape:showpageshadow="2"
     inkscape:pageopacity="0.0"
     inkscape:pagecheckerboard="0"
     inkscape:deskcolor="#d1d1d1"
     inkscape:document-units="mm"
     inkscape:zoom="1.0066252"
     inkscape:cx="286.6012"
     inkscape:cy="24.33875"
     inkscape:window-width="1920"
     inkscape:window-height="1008"
     inkscape:window-x="0"
     inkscape:window-y="0"
     inkscape:window-maximized="1"
     inkscape:current-layer="layer1" />
  <defs
     id="defs1" />
  <g
     inkscape:label="Slānis 1"
     inkscape:groupmode="layer"
     id="layer1"
     transform="translate(-0.77832022,-0.42082122)">
    <path
       style="fill:#000000;stroke-width:8.39041"
       id="path1"
       d="M 6.5994459,4.0745884 C 6.5483301,4.1700586 6.4932174,4.2634947 6.4460975,4.3609994 5.717299,5.8690906 6.8497336,3.5797969 6.049098,5.3100609 5.742511,5.9726297 5.3540764,6.5890254 4.9497973,7.1942684 4.5574482,7.7515165 4.1332229,8.2790173 3.586513,8.6921249 3.3593966,8.8637384 3.0789261,9.0452014 2.7972857,9.1225765 c -0.095472,0.026211 -0.197078,0.019305 -0.2956133,0.028958 0.026471,-0.00854 0.098465,-0.00531 0.079408,-0.025542 C 2.5455513,9.0882612 2.4823782,9.0943981 2.433027,9.0786271 2.3823022,9.0271783 2.3217502,8.9838452 2.2808525,8.9242882 2.0640645,8.6086047 2.0346535,8.2258797 1.9904108,7.8593462 2.012612,7.0449096 2.2453492,6.2042736 2.7612174,5.5611991 c 0.027473,0.00248 0.2354586,0.00397 0.2265595,0.082048 -0.0052,0.04562 -0.1477045,0.00962 -0.1279462,0.05104 0.039576,0.083024 0.1548698,0.099786 0.2270273,0.1568152 0.2682591,0.2120063 0.4154587,0.3684317 0.6643405,0.6102224 0.5859897,0.6191136 1.199765,1.2133682 1.7352867,1.8773155 0.5031608,0.5707455 0.9967877,1.1721684 1.6815213,1.5277319 0.099122,0.031334 0.1937665,0.08537 0.2973657,0.094024 C 8.0470523,10.009004 8.4877599,9.8584307 8.9255316,9.5008127 9.3002846,9.1579131 9.4055894,8.6745448 9.5897596,8.2250488 9.7307667,7.8836495 9.8926792,7.5515687 10.039606,7.2121686 c 0.245562,-0.5192863 0.401065,-1.071825 0.551337,-1.6241168 0.169468,-0.5001574 0.0747,-1.0285384 0.133359,-1.5387356 0.07834,-0.5179479 0.227952,-1.026649 0.157083,-1.5561766 -0.0216,-0.1613787 -0.07468,-0.316961 -0.112013,-0.4754429 C 10.571073,1.4607755 10.2954,0.88437052 9.7558091,0.58077964 9.6393072,0.51523185 9.5135788,0.45710078 9.3814095,0.43708194 9.1709513,0.40520485 8.9557408,0.43060131 8.7429062,0.42736095 8.0634879,0.64022366 7.5597906,1.1170406 7.1456999,1.6768011 6.9518073,2.0065501 6.6659551,2.2741584 6.5006247,2.6218668 6.3853272,2.8643495 6.3606906,3.0209282 6.2934671,3.2852995 6.149308,4.1172659 6.3335146,4.9725947 6.7286355,5.7143508 c 0.067929,0.1275193 0.1533588,0.2449144 0.2300382,0.3673735 0.2305728,0.3215605 0.5333941,0.5740709 0.8378277,0.8215344 0.1280874,0.104119 0.4566219,0.3671137 0.5959528,0.4546164 0.1534182,0.096352 0.3159619,0.1773457 0.4739421,0.2660167 0.5399026,0.222019 1.1124907,0.3350668 1.6967487,0.3252693 0.320807,-0.00538 0.724129,0.00202 1.037659,-0.1419835 0.09461,-0.043456 0.174988,-0.1128547 0.262482,-0.1692783 0.40678,-0.4924916 0.171001,-0.7263653 0.175634,-1.2483399 0.002,-0.2204635 0.02989,-0.3072039 0.07283,-0.5226492 0.02023,-0.073984 0.03416,-0.1499729 0.06064,-0.2219485 0.01723,-0.046819 0.03824,-0.093724 0.06972,-0.1324236 0.0095,-0.011695 0.04832,-0.022535 0.04449,-0.00798 -0.102857,0.391222 -0.576379,-0.1385902 -0.493254,0.2196801 0.0971,0.48748 0.245609,0.9659236 0.297236,1.4615995 0.01819,0.4022175 0.185829,0.7739107 0.559442,0.9661995 0.09297,0.047851 0.198043,0.067194 0.297065,0.1007888 0.912993,0.1374549 1.381048,-0.199166 1.898518,-0.8815666 0.38426,-0.5246647 0.817436,-0.7422462 -0.569608,-0.8351651 -0.102945,-0.0069 -0.105513,0.1773331 -0.15827,0.2659996 -0.308224,0.6667812 -0.607923,1.3649617 -0.706699,2.0997018 -0.01663,0.1236657 -0.01853,0.2488647 -0.02781,0.3732992 -0.0052,0.2818583 0.03204,0.5588389 0.129891,0.8236051 0.0082,0.02205 0.110936,0.256613 0.13017,0.266963 0.221065,0.118951 0.461199,0.198422 0.691799,0.297637 0.143406,-0.06297 0.292187,-0.114886 0.430218,-0.188896 0.131778,-0.07066 0.253327,-0.159087 0.376599,-0.243715 0.513821,-0.3527497 0.965809,-0.7570392 1.363748,-1.2389388 0.131032,-0.158679 0.245052,-0.3306749 0.367574,-0.4960101 0.374881,-0.6243984 0.768725,-1.2844661 0.867475,-2.017948 0.01767,-0.3905192 -0.04297,-0.3195037 -0.980962,-0.044521 -0.06679,0.019565 -0.01006,0.1388538 -0.01281,0.2083939 -0.0093,0.2382987 -0.0121,0.4768153 -0.01834,0.7152176 -0.02599,0.8643607 -0.02695,1.7292233 -0.06867,2.5929897 -0.0098,0.2871707 -0.05348,0.6905427 0.25613,0.8746687 0.287115,0.170748 0.660914,-0.05832 0.909597,-0.183108 0.866162,-0.538577 1.658375,-1.1983721 2.315054,-1.9792516 0.428246,-0.523972 0.646892,-1.0471921 0.836353,-1.6822794 -0.0186,0.3911874 -0.79848,0.1260157 -0.807624,0.1781365 -0.01025,0.058413 0.01214,0.1180708 0.01433,0.1773383 0.0054,0.1454027 0.003,0.5600031 0.0028,0.684806 0.005,0.672879 -0.105477,1.3375091 -0.26481,1.9891682 -0.212448,1.58656 1.821654,0.08499 1.974477,-0.027028 0.621945,-0.5010119 0.9946,-1.1908634 1.286712,-1.9183324 0.100488,-0.2649178 0.241187,-0.5114691 0.352233,-0.7716289 0.02629,-0.061591 0.05128,-0.1238327 0.07275,-0.187262 0.0079,-0.023538 0.03995,-0.069566 0.01533,-0.072952 -0.336559,-0.046299 -0.67808,-0.04324 -1.01712,-0.064858 -0.226596,0.9481768 0.08602,1.9007054 0.524105,2.7375887 0.213454,0.3162516 0.375113,0.6617196 0.574821,0.9863876 0.100674,0.163665 0.05319,0.115914 0.133601,0.186571 0.325897,-0.162933 0.708041,-0.243756 0.97769,-0.488797 0.0928,-0.08433 -0.01741,-0.250175 -0.02692,-0.375206 -0.01207,-0.1587944 -0.02461,-0.3175476 -0.03774,-0.4762577 -0.014,-0.1693414 -0.05095,-0.3381334 -0.04353,-0.5078869 0.01626,-0.3722415 0.140383,-0.6425629 0.261324,-0.9888855 0.197212,-0.3694118 0.388567,-0.7811795 0.780289,-0.9845774 0.06848,-0.035566 0.145911,-0.058194 0.222966,-0.062167 0.0482,-0.00249 0.178931,0.017895 0.13807,0.043563 -0.0669,0.042045 -0.157565,0.01214 -0.236349,0.018192 0.405564,0.5570922 0.410825,1.3046937 0.404107,1.9650064 -0.01518,0.1151342 -0.02164,0.231746 -0.04551,0.3453989 0.01099,0.1895415 -0.137098,0.3276602 -0.175115,0.5001681 -0.0085,0.038555 0.02376,-0.1035696 0.0631,-0.100232 1.004058,0.085192 0.723256,0.4734981 0.977656,-0.030591 0.381063,-0.9878965 0.946448,-1.8393512 1.677757,-2.598856 -0.571266,-0.04066 0.4601,-0.2314824 0.330545,-0.212359 -0.111255,0.01641 -0.22144,0.039416 -0.332008,0.059969 -0.02658,0.00494 -0.07799,-0.010507 -0.07943,0.016484 -0.0047,0.087724 0.04331,0.170277 0.06488,0.2554359 0.03579,0.1412447 0.07146,0.2825154 0.107186,0.423776 0.164404,0.6587746 0.243121,1.3203808 0.144701,1.9928388 -0.03044,0.2737612 -0.130961,0.5604264 -0.09614,0.8394364 0.0093,0.07492 0.03211,0.147548 0.04819,0.221324 0.133983,0.123514 0.223089,0.335691 0.401952,0.370541 0.589001,0.114766 1.01855,-0.358672 1.383608,-0.707762 0.421608,-0.4031257 0.25595,-0.234106 0.655203,-0.6973925 0.46493,-0.5417169 0.813296,-1.1634561 1.177426,-1.7731011 0.129075,-0.2167112 0.23931,-0.4448794 0.37914,-0.6552328 0.03026,-0.045527 0.05802,-0.093839 0.09676,-0.1324237 0.0065,-0.0065 0.03386,0.00728 0.02536,0.010766 -0.122793,0.050651 -0.250279,0.089087 -0.375417,0.1336302 -0.01778,-0.0034 -0.04311,-0.025134 -0.0534,-0.01021 -3.77e-4,5.454e-4 0.07777,0.1373948 0.101379,0.1826065 0.130445,0.2498336 0.215102,0.5206325 0.319931,0.7820296 0.165974,0.3794989 0.344389,0.757787 0.374127,1.1770229 0.01478,0.2081564 -0.0016,0.3741438 -0.01348,0.5819787 -0.05362,0.5907632 -0.068,0.7630862 -0.618602,1.0063562 0.156062,0.161118 -0.297603,0.01507 -0.226106,-0.0089 0.0767,-0.0258 0.163468,0.01099 0.24269,-0.0055 0.01481,-0.003 -0.01622,-0.02617 -0.01986,-0.04086 -0.0093,-0.03775 -0.02447,-0.07672 -0.0186,-0.115142 0.01377,-0.08978 0.05088,-0.17439 0.07632,-0.261587 0.145536,-0.7226366 0.58901,-1.3109165 0.996382,-1.9052513 C 34.309115,8.0233471 34.134813,8.289209 34.535424,7.6354709 34.887393,6.9333454 35.091814,6.1524514 34.848433,5.37841 34.737893,5.026855 34.62741,4.9125186 34.424814,4.6214432 34.272522,4.436304 34.104315,4.2649077 33.930911,4.0996746 c -0.0069,-0.00653 -0.02313,-0.027139 -0.02231,-0.017709 9.63e-4,0.011212 0.03898,0.1260825 0.04766,0.1525791 0.224272,-0.3682349 0.537496,-0.6454583 0.883992,-0.89555 0.0927,-0.05919 0.203178,-0.1439363 0.315561,-0.173377 0.08992,-0.023538 0.185258,0.013922 0.282081,-0.01563 0.06419,-0.019602 0.123555,-0.052555 0.185295,-0.078833 0.553484,-0.1808541 1.098657,-0.3868011 1.652483,-0.5665857 0.113679,-0.036903 0.260511,-0.017319 0.343264,-0.1035628 0.05899,-0.061509 -0.170296,0.008 -0.255425,0.012006 -0.120733,-0.1346593 -0.195949,-0.3327074 -0.362161,-0.4039779 -0.08947,-0.03837 -0.186928,0.071048 -0.257244,0.1383912 -0.539681,0.5168305 -1.049989,1.3834544 -1.323108,2.0697763 -0.104137,0.2616396 -0.165283,0.5383964 -0.247925,0.8075944 -0.151473,0.9719502 0.02487,1.746652 0.614419,2.5304448 0.05836,0.07757 0.402877,0.458594 0.497997,0.564452 0.07384,0.09803 0.138441,0.15559 0.162796,0.2763451 0.04418,0.2188633 -0.06011,0.5516213 -0.103581,0.7661747 -0.182732,0.7240412 0.02562,1.2676502 0.377743,1.8975052 0.579595,0.873188 1.215562,1.228835 2.302554,0.908407 0.18522,-0.0546 0.333277,-0.195132 0.49989,-0.292699 0.632941,-0.56075 0.935504,-1.313577 1.201075,-2.0925501 0.05391,-0.1581258 0.08725,-0.3240999 0.156597,-0.4760943 0.07072,-0.1550072 0.174045,-0.2929514 0.261067,-0.4394297 0.262256,-0.3682683 0.348499,-0.5090167 0.640497,-0.8450587 0.07562,-0.087034 0.153329,-0.1730355 0.239869,-0.2492248 0.02524,-0.02209 0.124334,-0.039892 0.09099,-0.042052 -0.892216,-0.057834 -0.348016,0.083555 -0.76483,-0.037683 -0.336433,0.8033071 -0.755412,1.5652681 -0.999405,2.4047142 -0.119879,0.5763704 0.0041,1.0517244 0.525829,1.3836184 0.113494,0.07219 0.240872,0.119805 0.361308,0.179707 0.826941,0.251694 1.743626,0.285396 2.567182,-0.0038 0.149579,-0.05253 0.292142,-0.123235 0.438202,-0.184852 0.141671,-0.09649 0.295223,-0.177472 0.424992,-0.289469 0.612006,-0.52825 0.884167,-1.2846609 0.889647,-2.078919 0.0013,-0.1786488 -0.02413,-0.3564846 -0.03638,-0.5347277 C 45.368576,7.6455052 44.998622,7.0088312 44.299427,6.6909458 43.842762,6.4833241 43.618471,6.5071291 43.132975,6.468355 c -0.649934,0.033005 -1.594683,0.066637 -1.9137,0.7876798 -0.121067,0.2736275 -0.07718,0.459442 -0.05569,0.7336193 0.05947,0.3686321 0.211839,0.7119252 0.309405,1.069785 0.05595,0.2051899 0.06152,0.2911879 0.09144,0.5012662 0.05045,0.7252137 0.205119,1.4616427 0.637786,2.0625847 0.08078,0.112187 0.18147,0.20858 0.272242,0.31287 0.725325,0.643928 1.410275,0.523621 2.234481,0.134072 0.735653,-0.529026 1.111539,-1.202804 1.374879,-2.048906 0.08535,-0.2944884 0.148614,-0.5967795 0.143454,-0.9048563 -0.0012,-0.067513 0.05023,-0.2112526 -0.01671,-0.2018747 -0.07306,0.010247 -0.04069,0.1418424 -0.06103,0.2127637 -0.289692,0.024763 -0.579373,0.049518 -0.869061,0.07427 0.149208,1.0267513 0.456969,2.0347783 0.928569,2.9587753 0.147798,0.212575 0.256279,0.416697 0.494507,0.550685 0.790837,0.444832 1.749281,-0.135683 2.449212,-0.479129 0.245623,-0.153114 0.50312,-0.288701 0.736922,-0.459345 0.925225,-0.675284 1.761284,-1.600122 2.112905,-2.7104155 0.07381,-0.2330789 0.09534,-0.4795875 0.143008,-0.7193812 C 52.262282,7.4846047 51.971848,6.6682405 51.840052,5.833855 51.765986,5.36504 51.745381,4.9687102 51.709035,4.4952273 51.66118,3.9936314 51.670796,3.4902118 51.663928,2.9874936 c -0.002,-0.142132 -0.01151,-0.4389339 -0.0561,-0.4541596 -0.328377,-0.1117963 -0.684283,-0.1142726 -1.026425,-0.1714086 -0.105994,0.169357 -0.226727,0.3303191 -0.317945,0.5080713 -0.519407,1.0123463 -0.71595,2.2054302 -0.805936,3.3269803 -0.02636,0.3275488 -0.02821,0.656599 -0.04229,0.9848989 -0.04195,1.0868409 0.134915,2.1608578 0.22398,3.2395701 0.0271,0.330014 0.03954,0.708241 0.05302,1.041481 0.0048,0.17517 0.01522,0.461777 0.01337,0.64801 -0.0026,0.229846 -0.06063,0.508066 0.06972,0.719503 0.07956,0.129082 0.214661,0.214256 0.321992,0.321386 0.13406,0.03549 0.263815,0.09775 0.402238,0.106483 0.838962,0.05285 1.682039,-0.229013 2.402225,-0.642096 0.177461,-0.101787 0.341482,-0.225397 0.512212,-0.338092 0.57827,-0.444038 1.101709,-0.96834 1.500372,-1.580673 C 55.183818,10.19364 55.041293,9.658063 54.828488,9.1644506 54.76014,9.0697875 54.708238,8.9607122 54.623443,8.8804502 54.310807,8.5845695 53.97629,8.5132808 53.521538,8.7082946 c -0.185777,0.079672 -0.29864,0.2802767 -0.40215,0.4539017 -0.256093,0.4295673 -0.306175,0.9185747 -0.400159,1.3954747 -0.09229,0.94012 -0.143676,2.39573 0.649547,3.095221 0.13614,0.120061 0.310594,0.187978 0.465898,0.281969 0.281227,0.0251 0.561537,0.08601 0.843678,0.07529 0.183178,-0.007 0.360342,-0.07173 0.534925,-0.127686 0.492068,-0.15774 0.981585,-0.423707 1.336937,-0.805552 0.119434,-0.128336 0.209872,-0.280855 0.314826,-0.421281 0.06549,-0.155765 0.150285,-0.304747 0.196432,-0.467292 0.241132,-0.849414 -0.01522,-1.771081 -0.220155,-2.5986208 -0.150619,-0.5561811 -0.223423,-1.2169635 -0.645649,-1.6527126 -0.08279,-0.08543 -0.184775,-0.1498615 -0.277144,-0.224796 0.0036,0.4305841 0.0012,-1.0173747 -0.542072,0.849063 -0.02784,0.095584 0.182659,0.088292 0.281599,0.099523 1.031648,0.1171427 1.695949,-0.0526 2.688553,-0.2818434 C 58.701266,8.2601176 59.064203,8.1636205 59.410578,8.02245 60.545934,7.5597158 61.650301,6.8595007 62.426164,5.8954894 62.57114,5.7153742 62.685005,5.512317 62.81444,5.320731 62.89571,5.1320026 62.997729,4.9509183 63.058244,4.7545497 63.198802,4.298497 63.204037,3.5629502 62.855278,3.1814599 c -0.08624,-0.09434 -0.20304,-0.155345 -0.304542,-0.2330156 -0.259286,0.043407 -0.544289,0.00954 -0.777824,0.1302257 -0.189304,0.097845 -0.548855,0.8416168 -0.617545,0.9914272 -0.452926,0.9878021 -0.761515,2.0349746 -1.102901,3.0642172 -0.469747,1.2719006 -0.963459,2.5376049 -1.361072,3.8348506 -0.148911,0.485821 -0.327894,1.113819 -0.387748,1.63712 -0.01596,0.140788 -0.0022,0.283403 -0.0033,0.425105 0.06961,0.155074 0.05895,0.385091 0.208869,0.465219 0.680688,0.36382 0.738653,0.158211 1.209993,0.0076 0.278554,-0.08896 0.569278,-0.13597 0.848192,-0.223761 0.187076,-0.05889 0.369512,-0.131655 0.554261,-0.197482 1.144856,-0.392883 2.025247,-0.951226 2.831394,-1.849532 0.199217,-0.198058 0.700981,-0.671196 -0.796944,-0.121409 -0.136808,0.05022 -0.07963,0.280559 -0.11134,0.422812 -0.145792,0.654342 -0.248036,1.31473 -0.331161,1.979326 0.01151,0.188573 -0.01225,0.382562 0.03416,0.565718 0.09326,0.368881 0.352323,0.801074 0.778481,0.87563 0.35507,0.06212 0.729409,0.01192 1.078565,-0.07758 0.587551,-0.150645 1.017058,-0.627835 1.446145,-1.005982 0.185777,-0.265802 0.402187,-0.512615 0.557272,-0.797403 0.440938,-0.809694 0.64269,-1.777664 0.437994,-2.686836 C 66.894709,9.7150097 66.722966,9.6019635 66.325639,9.0848635 66.155715,8.9631989 66.000084,8.8186054 65.815922,8.7198659 65.253316,8.418242 64.527531,8.3929482 64.022372,8.8206511 c -0.368175,0.3117295 -0.383352,0.524782 -0.544841,0.9576108 -0.01782,0.1725193 -0.05097,0.3441481 -0.05302,0.5175591 -0.0052,0.435933 0.12593,1.142939 0.456709,1.467781 0.09541,0.09369 0.216888,0.156444 0.32537,0.234664 0.225575,0.01589 0.45156,0.06885 0.676686,0.04767 0.129866,-0.01221 0.246106,-0.08814 0.363238,-0.145495 0.439148,-0.214995 0.771965,-0.566058 1.128565,-0.88982 0.06842,-0.06326 0.135286,-0.128251 0.205305,-0.189772 0.04823,-0.04239 0.09389,-0.08923 0.149208,-0.121795 0.01151,-0.0067 0.0512,0.0099 0.03805,0.01155 -0.154294,0.01942 -0.310111,0.0245 -0.464643,0.04207 -0.02747,0.0031 -0.07381,-0.0069 -0.07997,0.01986 -0.02191,0.09469 0.0056,0.194275 0.0082,0.291411 -0.0059,0.605741 -0.03601,1.221155 -0.180616,1.812533 -0.223683,0.914966 -0.645234,1.788076 -1.005787,2.65316 -0.446533,1.192993 -1.023689,2.357633 -1.259122,3.618747 0.0078,-0.0044 0.01559,-0.0089 0.02302,-0.01333 0.279779,-0.04345 0.586426,-0.0029 0.839297,-0.130322 0.07789,-0.03921 -0.06794,-0.16061 -0.102912,-0.240467 -0.05309,-0.121156 -0.108073,-0.241462 -0.161312,-0.362558 -0.252194,-0.573834 -0.151881,-0.326773 -0.367284,-0.934789 -0.03378,-0.172311 -0.08747,-0.341894 -0.101427,-0.516937 -0.05584,-0.700088 0.276512,-1.272808 0.79179,-1.719727 0.120585,-0.104583 0.256947,-0.18946 0.385398,-0.28419 0.651868,-0.434101 1.400255,-0.679985 2.102428,-1.014175 0.554499,-0.263904 0.580204,-0.297514 1.077804,-0.605531 0.636772,-0.378704 1.207034,-0.841141 1.658972,-1.428565 0.06456,-0.06115 0.08929,-0.153659 0.149246,-0.218232 0.0372,-0.04008 0.07588,-0.0067 0.121438,-0.01923 0.08071,-0.02224 0.465441,-0.184856 0.510693,-0.203579 0.770121,-0.286339 1.519785,-0.614363 2.228968,-1.029974 0.12942,-0.09235 0.263481,-0.178568 0.388279,-0.277073 0.251303,-0.1983405 0.351506,-0.3088266 0.555359,-0.5415315 0.0594,-0.067795 0.110152,-0.1432346 0.173154,-0.2077145 0.02153,-0.02209 0.109038,-0.050743 0.07822,-0.049596 -0.209277,0.00776 -0.416238,0.046641 -0.624354,0.069967 -0.04752,0.00679 -0.122106,-0.022944 -0.1426,0.020456 -0.07139,0.1512389 -0.06341,0.328451 -0.09924,0.4918137 -0.05803,0.2646063 -0.123665,0.5274933 -0.18225,0.7919733 -0.200664,0.905943 -0.384904,1.814743 -0.557071,2.726455 -0.03857,0.201581 -0.07889,0.402843 -0.115757,0.604745 -0.02302,0.125462 -0.04251,0.251508 -0.0636,0.377291 -0.0063,0.03857 -0.05283,0.135461 -0.01893,0.115795 0.08966,-0.05215 0.108184,-0.224091 0.211839,-0.22794 0.643578,-0.02391 0.810825,0.483173 0.592452,-0.0029 -0.0323,-0.0672 -0.982542,0.388144 -0.950347,0.455343 v 0 c 0.223831,0.237809 0.351023,0.391681 0.824298,0.438129 0.133541,0.0131 0.218151,-0.158813 0.310816,-0.255882 0.31219,-0.327062 0.370366,-0.860226 0.541969,-1.249501 0.250004,-0.930146 0.468745,-1.849938 0.580902,-2.80897 0.04555,-0.389624 0.132241,-1.1985336 0.0375,-1.6235581 -0.04782,-0.2145642 -0.170258,-0.4053443 -0.255424,-0.6080171 -0.278183,-0.024948 -0.556255,-0.098168 -0.834593,-0.074838 -0.09022,0.00757 -0.147686,0.1050917 -0.21726,0.1630115 -0.319689,0.2660872 -0.615696,0.5629046 -0.988742,0.7603134 -0.688133,0.3916808 -1.406685,0.7139773 -2.132541,1.0290833 -0.369401,0.199651 -0.71856,0.404667 -0.980649,0.739511 -0.480299,0.422211 -1.019305,0.771047 -1.573569,1.088115 -1.108172,0.55422 -2.264437,1.027672 -3.297701,1.717262 -0.439208,0.351332 -0.65441,0.472757 -0.983251,0.952562 -0.436476,0.636855 -0.624161,1.366062 -0.5351,2.133729 0.02599,0.225034 0.103915,0.441006 0.155853,0.661508 0.166695,0.416983 1.073753,2.855417 1.974022,1.613891 0.622872,-1.11395 1.162472,-2.27595 1.628288,-3.463618 0.619108,-1.652628 1.232595,-3.295162 0.941801,-5.089466 -0.06389,-0.250186 -0.15125,-0.820167 -0.429648,-0.972024 -0.61664,-0.3363588 -1.014928,-0.0059 -1.436427,0.356047 -0.219747,0.195255 -0.426927,0.408554 -0.670003,0.575432 -0.06371,0.04374 -0.129421,0.08486 -0.197361,0.121642 -0.03739,0.02023 -0.147574,0.0186 -0.117799,0.04895 0.06244,0.06366 0.168327,0.05893 0.252491,0.08839 0.0078,0.03672 0.04281,0.078 0.02339,0.110115 -0.01411,0.02309 -0.04166,-0.03679 -0.0529,-0.06131 -0.03081,-0.06677 -0.05138,-0.137878 -0.07109,-0.208665 -0.07941,-0.285088 -0.120733,-0.577966 -0.08513,-0.873627 0.03564,-0.1623584 0.02822,-0.262995 0.14802,-0.3825074 0.03527,-0.035381 0.12322,-0.027362 0.128789,-0.077062 0.0048,-0.042542 -0.15578,-0.054419 -0.113382,-0.060333 0.196655,-0.027436 0.374587,0.1068626 0.530834,0.1906441 0.08754,0.096657 0.195801,0.1779695 0.26259,0.2899703 0.432362,0.725052 0.233669,1.672948 -0.137476,2.374367 -0.111303,0.210336 -0.264335,0.395762 -0.396532,0.593644 -0.162834,0.156905 -0.311893,0.329476 -0.488478,0.470712 -0.147426,0.117907 -0.352546,0.162239 -0.478595,0.302756 -0.04414,0.0492 0.03776,0.130003 0.03119,0.195786 -0.0056,0.05717 -0.01819,0.127215 -0.0659,0.159203 -0.02747,0.0183 -0.07065,-0.03275 -0.07384,-0.0655 -0.01299,-0.134086 0.01893,-0.268782 0.02821,-0.403174 0.116315,-0.677411 0.270535,-1.365179 0.292328,-2.054494 0.0071,-0.220163 0.109521,-0.486419 -0.02562,-0.66032 -0.224499,-0.288752 -0.591293,-0.448739 -0.934609,-0.57486 -0.09066,-0.0333 -0.16985,0.09195 -0.254794,0.137926 -0.16261,0.135594 -0.449425,0.378389 -0.610621,0.495517 -0.602015,0.437431 -1.2765,0.744084 -1.966266,1.015587 -0.06155,0.02395 -0.915761,0.356039 -0.990469,0.38668 -0.129383,0.05306 -0.257541,0.109186 -0.384945,0.166817 -0.07273,0.03289 -0.26608,0.04301 -0.215403,0.104713 0.661201,0.805285 0.447647,-0.159774 0.546579,0.500431 0.764574,-1.873523 1.589633,-3.7277119 2.126441,-5.6849769 0.105734,-0.4096482 0.214884,-0.8184277 0.317202,-1.2289447 0.08613,-0.3455659 0.325332,-1.3921217 0.437571,-1.7963889 0.04314,-0.1553562 0.106773,-0.3045755 0.148948,-0.4601874 0.01337,-0.049374 0.06434,-0.1326204 0.01708,-0.152505 -0.153478,-0.064744 -0.331495,-0.033339 -0.497217,-0.04999 -0.02562,-0.046177 -0.06241,-0.087687 -0.0764,-0.1385234 -0.0071,-0.025914 0.04139,0.035901 0.05457,0.059308 0.02042,0.036198 0.03868,0.075283 0.04444,0.1164188 0.04281,0.3050469 -0.133801,0.58411 -0.274136,0.8353689 -0.306064,0.383675 -0.386979,0.5263071 -0.791378,0.845356 -0.945918,0.7462795 -2.111858,1.1685876 -3.221753,1.5952665 -0.281041,0.083837 -0.560234,0.174294 -0.843188,0.2515154 -0.225724,0.061603 -0.461082,0.088597 -0.682288,0.1648232 -0.04793,0.016521 -0.06022,0.089681 -0.107739,0.1074121 -0.06623,0.024726 -0.156707,-0.032522 -0.211765,0.011806 -0.818658,0.6593545 -0.888518,0.4570068 -0.657444,0.8528944 0.09099,-0.029886 0.06426,-0.040081 0.144456,0.091285 0.220378,0.3610696 0.22294,0.8033283 0.314678,1.203619 0.09341,0.450803 0.204339,0.900865 0.275287,1.355954 0.0297,0.189612 0.07135,0.441388 0.02302,0.638861 -0.02079,0.08556 -0.06957,0.161801 -0.104361,0.242702 -0.06204,0.07936 -0.114421,0.167322 -0.186148,0.238061 -0.263147,0.259564 -0.637597,0.419353 -0.983118,0.531884 -0.107739,0.03508 -0.23857,0.01507 -0.329788,0.08227 -0.0349,0.02576 0.05981,0.06308 0.0897,0.09461 -0.04292,0.01051 -0.08851,0.0498 -0.128715,0.03144 -0.158712,-0.07245 -0.244212,-0.388265 -0.272131,-0.502737 -0.144605,-0.593236 -0.08453,-1.208426 -0.05558,-1.810032 0.01745,-0.206136 0.03119,-0.412629 0.05261,-0.618412 0.0093,-0.08972 0.09534,-0.4399794 0.0219,-0.4701552 -0.123703,-0.050962 -0.267825,-0.037289 -0.391546,-0.088218 -0.03917,-0.016113 0.172635,-0.22689 0.125671,0.018823 0.08643,0.1625474 0.13781,0.316567 0.200033,0.4879772 0.0052,0.01466 0.0385,0.02168 0.03081,0.03519 -0.01485,0.02614 -0.03527,0.04879 -0.05276,0.07319 -0.400252,0.473441 -0.877532,0.866445 -1.395599,1.206769 -0.357557,0.220786 -0.493664,0.3227 -0.882106,0.490347 -0.147612,0.0637 -0.302055,0.110167 -0.453075,0.165254 -0.137179,0.04009 -0.279556,0.06543 -0.411564,0.120254 -0.06664,0.0277 -0.0297,0.181159 -0.14635,0.159548 0.02005,0.06701 0.04938,0.131911 0.06003,0.201024 0.0052,0.03315 -0.0219,0.132208 -0.01374,0.09975 0.09642,-0.368161 0.102356,-0.759886 0.149617,-1.134807 0.05034,-1.413111 -0.08298,-2.8207968 -0.07488,-4.2339703 0.02413,-0.6963747 0.02265,-1.1075871 0.107331,-1.7981405 0.04878,-0.3985737 0.192274,-1.1632241 0.284939,-1.5647325 0.04503,-0.1951289 0.109261,-0.385502 0.154146,-0.5806621 0.02228,-0.09623 0.03119,-0.1950139 0.04674,-0.2925208 -0.278071,-0.1230642 -0.551762,-0.2566313 -0.834266,-0.3691853 -0.03044,-0.012066 -0.06419,0.2146348 -0.07622,0.2852182 -0.0245,0.1434536 -0.04912,0.2871152 -0.06389,0.4318976 -0.05547,0.5440425 -0.03675,0.6749143 -0.03082,1.2471953 0.06363,0.7031283 0.05146,0.7870509 0.191718,1.4759783 0.138664,0.6810626 0.400382,1.3458037 0.305767,2.0542139 -0.04043,0.1645559 -0.06293,0.3345767 -0.121253,0.4936677 -0.421614,1.1497652 -1.465756,1.9431225 -2.444823,2.5973195 -0.190826,0.116964 -0.379217,0.237979 -0.572467,0.35089 -0.126859,0.07413 -0.279037,0.110987 -0.387578,0.210038 -0.0271,0.02465 0.07715,0.02632 0.09196,0.05973 0.0193,0.04343 -0.03946,0.160665 -0.06987,0.124181 -0.04641,-0.0557 -0.06501,-0.12962 -0.09749,-0.194431 -0.361159,-0.976008 -0.597905,-1.9999828 -1.055936,-2.9383213 -0.327374,-0.053877 -0.652202,-0.1968812 -0.98209,-0.1616304 -0.05988,0.00639 -0.237864,0.9893117 -0.269532,1.0679023 -0.19001,0.5484664 -0.47143,1.0421264 -0.912969,1.4302974 -0.06961,0.02744 -0.138034,0.05818 -0.208869,0.08228 -0.07559,0.02569 -0.166286,0.01879 -0.229957,0.06697 -0.02859,0.02153 0.101576,-0.0065 0.10295,0.02918 0.0041,0.106722 -0.387593,0.08386 -0.345641,-0.04365 -0.05517,-0.06118 -0.116426,-0.11734 -0.165469,-0.18352 -0.356481,-0.481121 -0.482712,-1.105587 -0.566909,-1.6845828 -0.08294,-0.5438984 -0.25691,-1.0550828 -0.437044,-1.573421 -0.03865,-0.096746 -0.0323,-0.1623358 -0.09163,-0.026433 -0.0048,0.011286 0.01633,-0.019528 0.02784,-0.024466 0.06185,-0.027027 0.124371,-0.053825 0.18975,-0.070598 0.109558,-0.028104 0.222754,-0.039643 0.333314,-0.063622 0.0395,-0.00858 0.07763,-0.022609 0.116426,-0.033933 0.321991,-0.017041 0.75288,-0.088266 1.057288,0.071452 0.277923,0.1458334 0.393555,0.4666043 0.470865,0.7451925 0.01188,0.1261791 0.03416,0.2518124 0.03527,0.378532 0.0045,0.4653865 -0.130868,0.9849342 -0.49581,1.2993483 -0.0793,0.06831 -0.175976,0.113307 -0.264001,0.169961 -0.104212,0.03923 -0.205417,0.08766 -0.312636,0.117707 -0.473541,0.132691 -0.989422,0.122452 -1.474112,0.09569 -0.07106,-0.01199 -0.142155,-0.02395 -0.21325,-0.03594 -0.04871,-0.01689 -0.09575,-0.03973 -0.146164,-0.05066 -0.02228,-0.0048 -0.04581,-0.0012 -0.06779,0.0042 -0.01151,0.0027 -0.02153,0.02825 -0.02933,0.01942 -0.04808,-0.05549 0.08713,-0.205324 0.06122,-0.211576 0.327486,-0.6850161 0.765736,-1.4912747 0.948632,-2.2193585 0.04348,-0.1730169 0.05691,-0.3522189 0.08539,-0.5283279 -0.05461,-0.212734 0.0052,-0.4979072 -0.163835,-0.6382063 -0.976658,-0.8108856 -1.904036,0.7001056 -2.301251,1.3341719 -0.09125,0.1982772 -0.190009,0.3932765 -0.273802,0.594836 -0.282527,0.6798141 -0.439928,1.4315318 -0.950017,1.9933928 -0.08171,0.04597 -0.16339,0.09194 -0.245067,0.137911 0.01188,0.02569 0.06063,0.06298 0.03601,0.07705 -0.07109,0.04063 -0.160383,0.0409 -0.242245,0.04079 -0.299827,-3.86e-4 -0.421009,-0.248356 -0.579959,-0.460882 -0.231775,-0.35752 -0.08338,-0.104779 -0.27744,-0.505584 C 37.307658,9.7325775 37.328412,9.7215623 37.425308,9.3522244 37.568019,8.6921445 37.609785,8.1093365 37.231066,7.5127804 36.877333,7.0253558 36.383824,6.5499301 36.38257,5.9024409 c -3.46e-4,-0.1783481 0.046,-0.3537187 0.06902,-0.5305766 0.07622,-0.2177162 0.140001,-0.4402108 0.228694,-0.6531534 0.205491,-0.4933135 0.44565,-0.9126713 0.716448,-1.3715259 0.0431,-0.073078 0.653335,-1.0343983 0.655803,-1.140176 0.0063,-0.278625 -0.183586,-0.526303 -0.275361,-0.7894545 -0.226281,-0.020311 -0.451756,-0.068895 -0.678791,-0.060935 -0.155297,0.00544 -0.306584,0.055148 -0.455161,0.1006871 -0.543346,0.166547 -1.057912,0.4352375 -1.54424,0.7244906 -0.06048,-0.015344 -0.02376,-0.00901 -0.141014,0.00611 -0.335193,0.043241 -0.637172,0.1695256 -0.910617,0.370128 -0.479774,0.3711424 -0.903217,0.8182531 -1.084717,1.4123629 -0.01459,0.084082 -0.04276,0.1669171 -0.04375,0.2522468 -0.0047,0.4050331 0.293605,0.6928062 0.540197,0.9748858 0.103176,0.122589 0.194747,0.2058879 0.244191,0.3637872 0.16254,0.5190558 -0.03713,1.0422882 -0.27186,1.5009486 -0.606323,0.902024 -1.361549,1.7883869 -1.643354,2.8610283 -0.05407,0.2058292 -0.06632,0.4204252 -0.09949,0.6306392 0.02046,0.214175 0.0091,0.433796 0.06135,0.64252 0.03646,0.145863 0.112391,0.28217 0.200312,0.404135 0.376427,0.52217 1.053105,0.512451 1.577988,0.258425 0.106959,-0.07027 0.222372,-0.129094 0.320874,-0.210785 0.48542,-0.402587 0.668177,-0.99116 0.718269,-1.598032 0.04606,-0.8119881 -0.04658,-1.4551469 -0.41617,-2.1895072 C 33.97063,7.4569093 33.697757,6.739981 33.340721,6.4657462 33.236654,6.3858146 33.109409,6.3417538 32.993755,6.2797613 c -0.215177,0.041766 -0.43913,0.051523 -0.645533,0.1253029 -0.255254,0.091244 -0.618496,0.8041355 -0.762958,1.0347602 -0.137762,0.2290767 -0.267368,0.4685107 -0.430341,0.6812186 -0.237282,0.3096951 -0.503866,0.5974564 -0.736944,0.9106557 -0.26481,0.3122271 -0.538583,0.6124266 -0.824062,0.9059456 -0.05542,0.056973 -0.219205,0.1071637 -0.168688,0.1685247 0.07486,0.09093 0.233068,0.03416 0.349605,0.05123 0.06231,0.110048 0.124609,0.220092 0.186913,0.330137 -0.01552,0.04827 -0.01474,0.0557 -0.0087,-0.05503 0.007,-0.128054 0.05285,-0.250818 0.08427,-0.37407 0.01845,-0.072335 0.03549,-0.1450201 0.05327,-0.2175303 0.177684,-0.8169089 0.175164,-1.6441644 -0.05806,-2.4537602 -0.14042,-0.4100158 -0.362037,-1.2083188 -0.836466,-1.3764907 -0.533026,-0.1889427 -0.95805,0.093433 -1.351484,0.3824989 -0.128974,0.1180311 -0.266003,0.2278218 -0.38692,0.3540933 -0.74696,0.7800383 -1.253054,1.7499448 -1.482234,2.8032021 -0.04026,0.6600639 -0.189317,0.7306979 0.869923,0.9539349 0.112465,0.02369 0.18316,-0.143487 0.25143,-0.235949 0.256643,-0.3475925 0.300599,-0.821081 0.37112,-1.229047 0.0043,-0.1704255 0.01867,-0.3408918 0.01299,-0.511275 C 27.457735,7.8374232 27.307863,7.0529699 26.86531,6.497032 26.762364,6.3676749 26.62374,6.2712447 26.502937,6.1583529 26.270355,6.0942516 26.044918,5.9931621 25.805192,5.9660492 c -0.151269,-0.017115 -0.306614,0.018526 -0.452437,0.062223 -0.806785,0.2417885 -1.275988,0.9727146 -1.604437,1.6942613 -0.06663,0.2318537 -0.157316,0.458111 -0.199885,0.6955632 -0.106064,0.5916135 -0.02465,1.1698774 0.0939,1.7502493 0.0274,0.134087 -0.03241,0.355728 0.09749,0.398827 0.339236,0.112562 0.714812,-0.0072 1.072216,-0.01069 C 24.705504,10.110646 24.377542,9.7036934 24.197587,9.2835138 23.894042,8.5757711 23.63769,7.8360796 23.665663,7.0542741 23.33835,6.9127762 23.022989,6.7395693 22.683722,6.6297812 c -0.01756,-0.00568 -0.09545,0.1312208 -0.155349,0.2337211 -0.158482,0.2711809 -0.311306,0.5462923 -0.420994,0.8417623 -0.06432,0.1587792 -0.15601,0.3994517 -0.239896,0.5515493 -0.194557,0.3527646 -0.469488,0.6562538 -0.774478,0.915831 -0.243793,0.1775277 -0.488347,0.3461043 -0.743016,0.5073664 -0.05672,0.035901 -0.204953,0.053004 -0.168919,0.1096433 0.169691,0.2666964 0.414775,0.4836914 0.667368,0.6737434 0.03657,0.02751 0.05109,-0.07597 0.07664,-0.113954 0.377612,-0.7243126 0.462923,-1.5530252 0.425731,-2.360101 -0.02301,-0.3802722 -0.02765,-0.7970511 -0.171985,-1.1575921 -0.04575,-0.114268 -0.06213,-0.273551 -0.173501,-0.3259532 -0.240457,-0.1131383 -0.523214,-0.156585 -0.7872,-0.1260692 -0.109482,0.012656 -0.14948,0.1619902 -0.22422,0.2429855 -0.245983,0.4577274 -0.428251,0.9571927 -0.780323,1.3508097 -0.684313,0.6261177 -1.405603,1.2101104 -2.089967,1.8364157 -0.04794,0.036494 -0.197297,0.081717 -0.143832,0.1095133 0.129164,0.067138 0.329832,-0.059241 0.434724,0.0417 0.145447,0.1399713 0.111002,0.3906873 0.201874,0.5709333 0.01455,0.02885 0.02888,-0.05787 0.04187,-0.08746 0.08504,-0.193874 0.06257,-0.15043 0.130683,-0.39113 0.146491,-0.8959587 0.115287,-1.8026869 0.102938,-2.7077347 -0.0038,-0.080499 -0.05065,-1.0485699 -0.101865,-1.0714356 -0.947516,-0.4230673 -0.963399,-0.4547604 -1.092911,0.032721 -0.190979,0.5577805 -0.530044,1.0705059 -0.879476,1.5382484 -0.351016,0.4339979 -0.708272,0.8471315 -1.115544,1.23024 -0.12162,0.1144065 -0.247543,0.2241687 -0.372918,0.3344468 -0.08161,0.071775 -0.172813,0.133181 -0.247981,0.2116721 -0.01196,0.012474 -0.0028,0.034416 -0.0042,0.051649 0.169732,0.099478 0.333668,0.2095857 0.509194,0.2984386 0.01849,0.00932 -0.0199,-0.024614 -0.0443,-0.114982 -0.04293,-0.1591207 -0.04429,-0.3243742 -0.0365,-0.4879422 0.103258,-0.7672785 0.442388,-1.4691256 0.682779,-2.199734 0.17563,-0.6312299 0.237243,-0.4298981 -0.73522,-0.9703787 -0.04337,-0.024095 -0.0816,0.057059 -0.117863,0.090921 -0.158593,0.1480684 -0.275606,0.3361249 -0.416473,0.4994746 -0.121133,0.144883 -0.239304,0.2877167 -0.405523,0.3839684 -0.03775,0.021867 -0.125775,0.00861 -0.120143,0.051857 0.0056,0.04307 0.155315,-0.017375 0.129142,0.017301 -0.03226,0.042747 -0.106083,0.014925 -0.159125,0.022424 -0.03293,0.010247 -0.06895,0.013551 -0.09883,0.030777 -0.01678,0.00969 -0.0199,0.03423 -0.0349,0.046437 -0.07411,0.060302 -0.132278,-0.1334527 -0.07775,-0.1637269 0.0328,-0.6630552 -0.127922,-1.3082603 -0.368079,-1.9236636 -0.289452,-0.432087 -0.263267,-0.5503412 -0.969443,-0.5867916 -0.134377,-0.00694 -0.253543,0.099051 -0.361883,0.1788419 -0.271693,0.2000963 -0.369226,0.5598862 -0.461641,0.8615191 -0.02001,0.1338604 -0.05121,0.2665216 -0.06003,0.4015801 -0.0079,0.1213824 -0.0033,0.7728785 0.122938,0.871278 0.06364,0.049578 0.08325,-0.3510234 0.159484,-0.1820273 -0.10309,-0.00694 -0.205936,0.00561 -0.309067,0.00172 C 10.447947,6.7833769 9.9916976,6.7593009 9.5457103,6.653604 9.4293655,6.6171455 9.3059133,6.5983799 9.1966754,6.5442284 9.0932458,6.4929563 9.008669,6.4101917 8.9159502,6.34142 8.5956513,6.1038479 8.2487692,5.8804014 7.9901279,5.5749542 7.6244833,4.9390787 7.3517672,4.22181 7.3930413,3.4775846 7.4029168,3.4039124 7.4049587,3.3287477 7.4227048,3.2565717 7.5114686,2.895955 7.9258061,2.5869783 8.0914888,2.2572424 8.3504925,1.9379458 8.6707543,1.5740681 9.0772119,1.4563159 9.012539,1.4419742 8.9372295,1.451612 8.8831857,1.4132916 c -0.031965,-0.022654 0.078651,-0.019933 0.116931,-0.011631 0.055117,0.011951 0.1099255,0.034995 0.1538638,0.070349 0.2479736,0.1995257 0.3487513,0.5298949 0.4784606,0.8046518 0.028141,0.085408 0.1607766,0.4589064 0.1662934,0.5746406 0.00412,0.087316 -0.023575,0.1732396 -0.037088,0.2596051 C 9.7161195,3.40198 9.6577131,3.6910176 9.6193957,3.983251 c -0.0049,0.1128138 -0.014887,0.2255237 -0.01459,0.3384415 5.413e-4,0.1996063 0.030035,0.2409272 0.027881,0.4350637 -0.00216,0.1987261 -0.067915,0.3908382 -0.1222183,0.579227 C 9.3609298,5.8557789 9.1993811,6.3717435 9.0302632,6.8855227 8.9083387,7.2494658 8.6446531,7.5437734 8.5326716,7.9143925 8.4425193,8.2048899 8.4062883,8.54383 8.1688844,8.7586125 8.0486046,8.8312712 7.9230715,8.8702087 7.7875204,8.9093614 7.7391642,8.9233207 7.6083815,8.9087693 7.6412451,8.9468955 7.7853077,9.1140316 7.8991128,8.8781647 7.8163448,9.0240056 7.2911673,8.7453282 6.9011905,8.0532886 6.4568524,7.6615432 5.8435809,7.0318049 5.3026484,6.3340302 4.6965838,5.6964647 4.0540777,5.0948833 3.193278,4.2713594 2.2203024,4.6760662 2.0752894,4.7363843 1.9567842,4.8470189 1.8250259,4.9324933 1.7353488,5.0346001 1.6363123,5.1291964 1.5559923,5.2388137 1.1131413,5.8431996 0.85353419,6.6274196 0.78775032,7.3699535 c -0.0187596,0.2117353 -0.003438,0.4251167 -0.005157,0.637675 0.0332498,0.2015702 0.0481773,0.4070334 0.0997478,0.6047114 0.14798478,0.5672409 0.42933048,1.0696406 0.93008738,1.3940691 0.1244082,0.08061 0.2578156,0.158876 0.4032711,0.187444 0.2395201,0.04704 0.4876192,0.02361 0.7314285,0.03542 0.1718697,-0.03605 0.3483726,-0.05455 0.5156094,-0.108114 C 4.6242774,9.7491271 5.4548942,8.7700914 6.1395499,7.8156285 6.2902891,7.5745647 6.4522269,7.340152 6.5917683,7.0924379 7.0620565,6.257582 7.3436597,5.345934 7.5927738,4.426087 7.6176287,4.3558482 6.6243008,4.0043496 6.5994459,4.0745884 Z" />
    <path
       style="fill:#000000;stroke-width:8.39041"
       id="path2"
       d="m 65.475113,7.0580947 c 0.762855,0.5281791 1.639763,0.8366509 2.523377,1.0923986 0.07674,0.042279 0.674682,-1.0432623 0.597921,-1.0855418 v 0 C 67.735711,6.779482 66.872275,6.4983028 66.032848,6.1538833 65.96891,6.1144454 65.411175,7.0186569 65.475113,7.0580947 Z" />
    <path
       style="fill:#000000;stroke-width:8.39041"
       id="path4"
       d="m 70.180352,7.1524386 c -0.417638,0.5499443 -0.802074,1.124157 -1.082158,1.7566726 -0.104546,0.353522 -0.07061,0.1786191 -0.107627,0.5235554 -0.0093,0.073936 1.03636,0.2051009 1.045634,0.1311614 v 0 c 0.03842,-0.1237808 0.01039,-0.045253 0.09961,-0.2293774 0.327745,-0.5740931 0.703546,-1.1241927 0.976461,-1.7272866 0.0323,-0.065898 -0.899778,-0.5206224 -0.931929,-0.4547251 z" />
    <path
       style="fill:#000000;stroke-width:8.39041"
       id="path5"
       d="m 35.246992,4.3670598 c 0.908184,0.1209443 1.82671,0.069748 2.738818,0.1057302 0.967232,0.055607 1.908791,0.3060791 2.85468,0.5006485 0.09775,0.016966 0.195504,0.033933 0.293219,0.050903 0.0708,0.034156 0.553941,-0.9672583 0.483131,-1.0014206 v 0 c -0.09018,-0.028216 -0.180357,-0.056412 -0.270498,-0.084621 -0.988839,-0.2849546 -1.985801,-0.5703565 -3.01647,-0.650013 -1.114049,-0.040994 -2.233849,-0.067034 -3.343482,0.063782 -0.07178,0.018414 0.188836,1.033417 0.260607,1.0149889 z" />
    <path
       style="fill:#000000;stroke-width:8.39041"
       id="path6"
       d="m 57.912516,6.3262308 c 1.236884,0.5947558 2.6398,0.7001775 3.9829,0.8752842 1.197794,0.1301218 2.403918,0.1223143 3.604678,0.045468 0.443311,-0.028364 0.35882,0.078918 0.461384,-0.070045 0.223793,-0.051126 0.403162,0.05218 0.608423,0.127872 0.06582,0.038663 0.612604,-0.8920583 0.546791,-0.9307225 v 0 C 66.826035,6.2800219 66.540397,6.1732521 66.246536,6.0906252 65.787399,6.0664193 65.32697,6.0236876 64.86761,6.0061457 64.027953,5.9740691 63.18732,5.9614575 62.349048,5.8961051 61.049132,5.8083252 59.748794,5.6803084 58.470252,5.4220193 c -0.06393,-0.039439 -0.621674,0.864774 -0.557736,0.9042115 z" />
  </g>
</svg>
