<?xml version="1.0" encoding="UTF-8" standalone="no"?>
<!-- Created with Inkscape (http://www.inkscape.org/) -->

<svg
   width="80"
   height="80"
   viewBox="0 0 21.166666 21.166666"
   version="1.1"
   id="svg1"
   inkscape:version="1.4.2 (ebf0e940d0, 2025-05-08)"
   sodipodi:docname="Overlay.svg"
   xmlns:inkscape="http://www.inkscape.org/namespaces/inkscape"
   xmlns:sodipodi="http://sodipodi.sourceforge.net/DTD/sodipodi-0.dtd"
   xmlns="http://www.w3.org/2000/svg"
   xmlns:svg="http://www.w3.org/2000/svg">
  <sodipodi:namedview
     id="namedview1"
     pagecolor="#b4b4b4"
     bordercolor="#000000"
     borderopacity="0.25"
     inkscape:showpageshadow="2"
     inkscape:pageopacity="0.0"
     inkscape:pagecheckerboard="0"
     inkscape:deskcolor="#d1d1d1"
     inkscape:document-units="px"
     inkscape:zoom="22.627418"
     inkscape:cx="-0.86178635"
     inkscape:cy="12.1313"
     inkscape:window-width="1920"
     inkscape:window-height="1008"
     inkscape:window-x="0"
     inkscape:window-y="0"
     inkscape:window-maximized="1"
     inkscape:current-layer="layer1"
     showgrid="false"
     showguides="false" />
  <defs
     id="defs1" />
  <g
     inkscape:label="Slānis 1"
     inkscape:groupmode="layer"
     id="layer1">
    <path
       id="path4"
       style="fill:#ffffff;stroke-width:2.20063"
       d="M 0,0 V 1.0583333 H 0.5291666 V 0.5291665 H 1.0583333 V 0 Z" />
    <path
       id="path4-6"
       style="fill:#ffffff;stroke-width:2.20063"
       d="M 4.7625005,0 H 3.7041666 v 0.529167 h 0.5291669 v 0.529167 h 0.529167 z" />
    <path
       id="path4-9"
       style="fill:#ffffff;stroke-width:2.20063"
       d="M 4.7625005,5.0270838 V 3.9687512 H 4.2333339 V 4.4979178 H 3.7041672 v 0.529166 z" />
    <path
       id="path4-6-2"
       style="fill:#ffffff;stroke-width:2.20063"
       d="M 0,5.0270838 H 1.0583339 V 4.4979168 H 0.529167 V 3.9687501 H 0 Z" />
    <rect
       style="opacity:0.520725;fill:#00a0d9;fill-opacity:1;stroke:#000000;stroke-width:0.264583"
       id="rect1"
       width="2.864795"
       height="2.7244787"
       x="0.97052246"
       y="1.0991459" />
    <path
       style="opacity:1;fill:none;fill-opacity:1;stroke:#000000;stroke-width:0.264583;stroke-opacity:1"
       d="m 2.3736874,0.73081506 c -0.024224,0.23416413 -0.01188,0.10031815 -0.029233,0.32155864 -0.0039,0.048721 -0.0078,0.097442 -0.011693,0.146163 -0.00585,0.027284 -0.015284,0.054039 -0.01754,0.081851 -0.00756,0.093238 0.00246,0.187121 0,0.280633 -0.00308,0.1168846 -0.010252,0.2341849 -0.017539,0.3507912 -0.00628,0.1004115 0,0.2033135 0,0.3040191 0,0.027538 -0.00153,0.023117 0.00585,0.052619 0.0036,0.014399 0.01394,0.026527 0.017539,0.040926 0.00378,0.015125 0,0.031181 0,0.046772 0,0.044823 0,0.089647 0,0.13447 0,0.00478 -0.00281,0.032497 0,0.040926 0.0067,0.020093 0.042806,0.083937 0.029233,0.1110839 -0.00247,0.00493 -0.00923,0.00676 -0.011693,0.011693 -8.705e-4,0.00175 0.00185,0.00523 0,0.00585 -0.039727,0.013242 -0.1002279,-0.014897 -0.1286236,-0.040926 -0.012358,-0.011328 -0.017378,-0.029071 -0.029233,-0.040926 -0.00616,-0.00616 -0.016294,-0.00663 -0.023386,-0.011693 -0.00673,-0.00481 -0.011693,-0.011693 -0.01754,-0.017539 C 2.122287,2.5373899 2.1044295,2.5261603 2.0872079,2.5140039 2.0511481,2.4885499 2.0113551,2.4644224 1.976124,2.4379991 1.9539098,2.4213384 1.9354811,2.3937352 1.9118122,2.3795339 1.8455405,2.3397708 1.8962951,2.3771636 1.841654,2.3561478 1.7855265,2.3345603 1.7702493,2.3081292 1.7305701,2.26845 1.7215501,2.25943 1.7087301,2.256152 1.7013371,2.245064 c -0.0075,-0.011252 -0.026763,-0.032609 -0.01754,-0.023386 0.00882,0.00882 0.020839,0.014153 0.029233,0.023386 0.014947,0.016441 0.025728,0.036408 0.040926,0.052619 0.035092,0.037431 0.039269,0.029845 0.064312,0.058465 0.015665,0.017903 0.025121,0.040685 0.040926,0.058465 0.00829,0.00933 0.019957,0.015038 0.029233,0.023386 0.042777,0.038499 0.033631,0.043551 0.093544,0.087698 0.024939,0.018376 0.065045,0.032523 0.093544,0.046772 0.01269,0.00635 0.028607,0.00465 0.040926,0.011693 0.00718,0.0041 0.010528,0.013158 0.017539,0.01754 0.034571,0.021607 0.083467,0.031098 0.122777,0.040926 0.04306,0.010765 0.086692,0.012058 0.1227769,0.040926 5.24e-5,4.2e-5 0.00721,0.017539 0.011693,0.017539 0.043325,0 0.090089,-0.1251682 0.1169304,-0.1520096 0.027353,-0.027353 0.055943,-0.053913 0.087698,-0.076004 0.025796,-0.017945 0.055705,-0.029341 0.081851,-0.046772 0.03827,-0.025513 0.073797,-0.054922 0.111084,-0.081851 0.062486,-0.045129 0.093138,-0.059419 0.13447,-0.1110839 0.011467,-0.014333 0.018426,-0.032364 0.029232,-0.046772 0.00661,-0.00882 0.016978,-0.014415 0.023386,-0.023386 0.0066,-0.00925 0.011692,-0.019488 0.017539,-0.029233 0.013642,-0.015591 0.028207,-0.03042 0.040926,-0.046772 0.00376,-0.00484 -0.00394,-0.00979 -0.00585,-0.011693"
       id="path1" />
  </g>
</svg>
