<?xml version="1.0" encoding="UTF-8" standalone="no"?>
<!-- Created with Inkscape (http://www.inkscape.org/) -->

<svg
   width="80"
   height="80"
   viewBox="0 0 21.166666 21.166666"
   version="1.1"
   id="svg1"
   inkscape:version="1.4.2 (ebf0e940d0, 2025-05-08)"
   sodipodi:docname="UI.svg"
   xmlns:inkscape="http://www.inkscape.org/namespaces/inkscape"
   xmlns:sodipodi="http://sodipodi.sourceforge.net/DTD/sodipodi-0.dtd"
   xmlns="http://www.w3.org/2000/svg"
   xmlns:svg="http://www.w3.org/2000/svg">
  <sodipodi:namedview
     id="namedview1"
     pagecolor="#b4b4b4"
     bordercolor="#000000"
     borderopacity="0.25"
     inkscape:showpageshadow="2"
     inkscape:pageopacity="0.0"
     inkscape:pagecheckerboard="0"
     inkscape:deskcolor="#d1d1d1"
     inkscape:document-units="px"
     inkscape:zoom="11.313709"
     inkscape:cx="26.649087"
     inkscape:cy="42.205436"
     inkscape:window-width="1920"
     inkscape:window-height="1008"
     inkscape:window-x="0"
     inkscape:window-y="0"
     inkscape:window-maximized="1"
     inkscape:current-layer="layer1"
     showgrid="false"
     showguides="false" />
  <defs
     id="defs1" />
  <g
     inkscape:label="Slānis 1"
     inkscape:groupmode="layer"
     id="layer1">
    <circle
       style="fill:#f3fbc8;stroke:#909263;stroke-width:0.0785648;stroke-linecap:round;stroke-linejoin:round"
       id="path1"
       cx="2.9104166"
       cy="2.9104166"
       r="2.871134" />
    <path
       style="fill:#f3fbc8;stroke:#000000;stroke-width:0.0785648;stroke-linecap:round;stroke-linejoin:round;stroke-opacity:1"
       d="M 2.4094037,5.3177203 1.4968062,0.688734"
       id="path2" />
    <path
       style="fill:#f13939;fill-opacity:1;stroke:#000000;stroke-width:0.0785648;stroke-linecap:round;stroke-linejoin:round;stroke-opacity:1"
       d="m 1.5629365,1.0098196 3.4519987,0.4548715 -3.015539,1.792729 z"
       id="path3" />
    <circle
       style="fill:#f3fbc8;stroke:#909263;stroke-width:0.0785648;stroke-linecap:round;stroke-linejoin:round"
       id="path1-3"
       cx="8.7312498"
       cy="2.9104164"
       r="2.871134" />
    <path
       style="fill:#f3fbc8;stroke:#000000;stroke-width:0.0785648;stroke-linecap:round;stroke-linejoin:round;stroke-opacity:1"
       d="M 8.2302365,5.3177201 7.317639,0.68873382"
       id="path2-5" />
    <path
       style="fill:#39f178;fill-opacity:1;stroke:#000000;stroke-width:0.0785648;stroke-linecap:round;stroke-linejoin:round;stroke-opacity:1"
       d="M 7.3837693,1.0098194 10.835768,1.4646909 7.820229,3.2574199 Z"
       id="path3-6" />
    <path
       id="path4"
       style="fill:#ffffff;stroke-width:2.20063"
       d="M 0,5.8208332 V 6.8791665 H 0.5291666 V 6.3499997 H 1.0583333 V 5.8208332 Z" />
    <path
       id="path4-6"
       style="fill:#ffffff;stroke-width:2.20063"
       d="M 4.7625005,5.8208332 H 3.7041666 v 0.529167 h 0.5291669 v 0.529167 h 0.529167 z" />
    <path
       id="path4-9"
       style="fill:#ffffff;stroke-width:2.20063"
       d="M 4.7625005,10.847917 V 9.7895844 H 4.2333339 V 10.318751 H 3.7041672 v 0.529166 z" />
    <path
       id="path4-6-2"
       style="fill:#ffffff;stroke-width:2.20063"
       d="M 0,10.847917 H 1.0583339 V 10.31875 H 0.529167 V 9.7895833 H 0 Z" />
    <rect
       style="fill:#00b4ec;fill-opacity:1;stroke:#000000;stroke-width:0.36068;stroke-dasharray:none;stroke-opacity:1"
       id="rect4"
       width="5.1955709"
       height="5.19557"
       x="11.822006"
       y="0.18033962" />
    <rect
       style="fill:#ec0000;fill-opacity:1;stroke:#000000;stroke-width:0.257628;stroke-dasharray:none;stroke-opacity:1"
       id="rect4-3"
       width="3.7111223"
       height="3.711122"
       x="2.4474783"
       y="14.273952"
       transform="rotate(-45)" />
    <path
       style="fill:#ec0000;fill-opacity:1;stroke:#000000;stroke-width:0.264583;stroke-dasharray:none;stroke-opacity:1"
       d="m 14.382441,6.6416477 c 0,0.041349 -0.0047,0.066925 0.01169,0.1052373 0.01107,0.025834 0.03231,0.046057 0.04677,0.070158 0.02723,0.045382 0.04534,0.1038908 0.05846,0.1520097 0.01925,0.070568 -0.04029,0.2871195 0,0.327405"
       id="path5" />
    <path
       style="fill:#ec0000;fill-opacity:1;stroke:#000000;stroke-width:0.264583;stroke-dasharray:none;stroke-opacity:1"
       d="m 12.581713,8.2435945 c 0.02728,0.015589 0.05252,0.035491 0.08185,0.046772 0.04976,0.01914 0.10089,0.00828 0.15201,0.011692 0.03135,0.00209 0.06219,0.0096 0.09354,0.011692 0.07371,0.00491 0.148483,-0.00526 0.222168,0 0.07317,0.00523 0.257565,0.029153 0.327405,0.011692 0.06072,-0.015179 -0.01248,-0.011692 0.04677,-0.011692"
       id="path6" />
    <path
       style="fill:#ec0000;fill-opacity:1;stroke:#000000;stroke-width:0.264583;stroke-dasharray:none;stroke-opacity:1"
       d="m 15.504973,8.41899 c 0.175396,0 0.350792,0 0.526187,0 0.06615,0 0.06047,0 0.09354,0 0.02867,0 0.05478,-0.00801 0.04677,0 -0.04508,0.045081 -0.08819,0.032401 -0.140317,0.058465"
       id="path7" />
    <path
       style="fill:#ec0000;fill-opacity:1;stroke:#000000;stroke-width:0.264583;stroke-dasharray:none;stroke-opacity:1"
       d="m 14.335669,9.1439586 c -0.07866,0.077872 -0.01546,0.192328 -0.03508,0.280633 -0.01718,0.077318 -0.06272,0.1456322 -0.08185,0.2221677 -0.0076,0.030251 0,0.062363 0,0.093545 0,0.1494356 0.0084,0.1483394 0.08185,0.2806337 0.02952,0.05314 -0.0038,0.04299 0.04677,0.09354"
       id="path8" />
    <path
       style="fill:#ec0000;fill-opacity:1;stroke:#000000;stroke-width:0.264583;stroke-dasharray:none;stroke-opacity:1"
       d="m 13.002662,7.8694171 c 0.06507,-0.095707 0.158539,-0.1613483 0.245554,-0.233861 0.09446,-0.078714 0.164618,-0.1811264 0.280633,-0.2338607 0.07185,-0.032659 0.0838,-0.018569 0.163703,-0.046772 0.0362,-0.012777 0.06909,-0.033861 0.105237,-0.046772 0.03384,-0.012086 0.07115,-0.012023 0.105238,-0.023386 0.03958,-0.013195 0.137473,-0.079008 0.163702,-0.1052372"
       id="path9" />
    <path
       style="fill:#ec0000;fill-opacity:1;stroke:#000000;stroke-width:0.264583;stroke-dasharray:none;stroke-opacity:1"
       d="m 14.803391,7.1210624 c 0.01949,0 0.03936,-0.00382 0.05846,0 0.04762,0.00952 0.207744,0.070859 0.245554,0.093544 0.0214,0.01284 0.0358,0.036314 0.05846,0.046772 0.02918,0.01347 0.06339,0.012274 0.09354,0.023386 0.08743,0.032211 0.279619,0.1032084 0.327406,0.1987817 0.01471,0.02942 -0.0041,0.096091 0,0.1286235 0.009,0.071716 0.02766,0.137177 0.05846,0.1987817 0.0066,0.013147 0.03046,0.021228 0.03508,0.035079 0.0092,0.027591 0.0016,0.02495 0.02339,0.046772"
       id="path10" />
    <path
       style="fill:#ec0000;fill-opacity:1;stroke:#000000;stroke-width:0.264583;stroke-dasharray:none;stroke-opacity:1"
       d="m 15.715448,8.7931674 c -0.02189,0.049073 0.02116,0.1260092 0,0.1753955 -0.02014,0.046995 -0.08335,0.100017 -0.11693,0.1403165 -0.01059,0.012703 -0.02768,0.020288 -0.03508,0.035079 -0.02016,0.040324 -0.01562,0.092277 -0.04677,0.1286235 -0.02658,0.031013 -0.0811,0.069659 -0.11693,0.093544 -0.03812,0.025411 -0.06764,0.068478 -0.105238,0.093545 -0.01126,0.00751 -0.07405,0.020788 -0.08185,0.023387 -0.03286,0.010954 -0.08748,0.042565 -0.11693,0.046772 -0.05227,0.00747 -0.0997,0.012925 -0.15201,0.023387 -0.01868,0.00374 -0.03967,-0.00313 -0.05846,0 -0.03061,0.0051 -0.06262,0.023386 -0.09354,0.023386"
       id="path11" />
    <path
       style="fill:#ec0000;fill-opacity:1;stroke:#000000;stroke-width:0.264583;stroke-dasharray:none;stroke-opacity:1"
       d="m 13.622393,9.4596708 c -0.08212,-0.044597 -0.176729,-0.045234 -0.257246,-0.093545 -0.02363,-0.014179 -0.03604,-0.042446 -0.05847,-0.058465 -0.07006,-0.050044 -0.04639,-0.019981 -0.105237,-0.093544 -0.02033,-0.025416 -0.05043,-0.032154 -0.07016,-0.058465 -0.03195,-0.042599 -0.03601,-0.095403 -0.05846,-0.1403165 -0.0049,-0.00986 -0.01771,-0.013933 -0.02339,-0.023386 -0.01689,-0.028149 -0.0045,-0.034802 -0.02339,-0.058465 -0.02728,-0.034105 -0.05457,-0.045473 -0.08185,-0.081851 -0.01037,-0.01383 -0.03097,-0.061325 -0.03508,-0.081851 -0.0075,-0.037555 -0.0124,-0.1513051 0.01169,-0.1753954"
       id="path12" />
    <path
       style="fill:#ec0000;fill-opacity:1;stroke:#000000;stroke-width:0.264583;stroke-dasharray:none;stroke-opacity:1"
       d="m 14.101808,8.2085153 c 0,0.031181 0,0.062363 0,0.093544 0,0.03746 -0.0011,0.1009719 0.04677,0.1169305 0.01479,0.00493 0.03139,-0.00257 0.04677,0 0.04697,0.00783 0.101184,0.033551 0.152009,0.023386 0.04466,-0.00893 0.0393,-0.018407 0.08185,-0.046772 0.04638,-0.03092 0.116681,-0.059965 0.105238,-0.1286235 -0.0026,-0.015851 -3.18e-4,-0.035409 -0.01169,-0.046772 -0.03083,-0.030831 -0.138468,-0.00708 -0.175396,-0.011692 -0.01223,-0.00153 -0.02285,-0.010165 -0.03508,-0.011692 -0.06972,-0.00872 -0.140415,0.00631 -0.210475,0.011692 z"
       id="path13" />
    <ellipse
       style="fill:#ffffff;stroke:#000000;stroke-width:0.264583;fill-opacity:1"
       id="path14"
       cx="8.8165531"
       cy="8.7113161"
       rx="2.291836"
       ry="2.3503015" />
    <path
       style="fill:#ffffff;fill-opacity:1;stroke:#000000;stroke-width:0.264583"
       d="m 8.7463952,7.2730719 c 0.018005,0.1235496 -0.034506,0.2700859 0.023386,0.3858704 0.056574,0.1131475 0.124183,0.1531922 0.1520097,0.292326 0.00959,0.047929 0.00502,0.1294334 -0.011692,0.1753957 -0.00893,0.024572 -0.026811,0.045354 -0.035079,0.070158 -0.032989,0.098966 -0.011692,0.2682255 -0.011692,0.3741771 0,0.036659 0.00521,0.080435 0,0.1169305 -0.00633,0.04429 -0.024662,0.086954 -0.035079,0.1286235 -0.011758,0.047033 2.495e-4,0.1042392 -0.011692,0.1520095 -0.012451,0.0498 -0.00958,0.03297 -0.035079,0.058465 -0.00153,0.00153 -0.023868,0.076125 0,0.070158 0.013634,-0.00341 0.024029,-0.014703 0.035079,-0.023387 0.043559,-0.034225 0.086563,-0.069186 0.1286235,-0.1052374 0.043355,-0.037161 0.068572,-0.098399 0.1169304,-0.1286235 0.039937,-0.024961 0.08515,-0.040351 0.1286235,-0.058465 0.166157,-0.069232 -0.050574,0.043185 0.1987817,-0.070158 0.04446,-0.020209 0.084087,-0.050117 0.1286233,-0.070158 0.03372,-0.015174 0.072164,-0.018542 0.1052375,-0.035079 0.01479,-0.0074 0.02132,-0.025905 0.035079,-0.035079 0.024381,-0.016256 0.048379,-0.013298 0.070158,-0.035079"
       id="path15" />
    <path
       style="fill:#ffffff;fill-opacity:1;stroke:#000000;stroke-width:0.264583"
       d="m 10.120312,6.20944 c 0.05729,0.012597 0.121151,0.029887 0.173633,0.057878 0.02092,0.011157 0.03696,0.030184 0.05788,0.041341 0.02078,0.011081 0.04508,0.014274 0.06615,0.024805 0.0145,0.00725 0.09454,0.05708 0.107487,0.066146 0.01446,0.01012 0.02585,0.024622 0.04134,0.033073 0.0153,0.00835 0.03386,0.00908 0.04961,0.016536 0.02328,0.011025 0.123303,0.06279 0.157096,0.09095 0.04299,0.035829 0.08209,0.07848 0.124024,0.1157552 0.04262,0.037885 0.09216,0.0777 0.14056,0.107487 0.01575,0.00969 0.03393,0.015007 0.04961,0.024805 0.05408,0.033799 0.06,0.1261459 0.09922,0.1653645"
       id="path16" />
    <path
       style="fill:#ffffff;fill-opacity:1;stroke:#000000;stroke-width:0.264583"
       d="m 7.8300129,6.1680989 c -0.1344819,0.021595 -0.2659523,0.085605 -0.3803385,0.1570963 -0.017799,0.011126 -0.041488,0.011692 -0.057878,0.024805 -0.00776,0.00621 -0.00906,0.018262 -0.016536,0.024805 -0.014957,0.013086 -0.03371,0.021148 -0.049609,0.033073 -0.015592,0.011692 -0.026371,0.028865 -0.041341,0.041341 -0.016864,0.014055 -0.03603,0.023236 -0.049609,0.041341 -0.00596,0.00795 -0.00951,0.017777 -0.016536,0.024805 -0.024551,0.024551 -0.065893,0.055037 -0.099219,0.066146 -0.017708,0.0059 -0.024135,0.00363 -0.041341,0.016536 -0.011025,0.00827 -0.023328,0.01506 -0.033073,0.024805 -0.012597,0.012597 -0.024405,0.038318 -0.041341,0.049609 -0.046191,0.030794 -0.1012782,0.050639 -0.1488281,0.074414 -0.021709,0.010856 -0.061909,0.052684 -0.082682,0.057878 -0.00802,0.00201 -0.01696,-0.00262 -0.024805,0 -0.03069,0.010229 -0.095528,0.055417 -0.1240234,0.074414"
       id="path17" />
    <path
       style="fill:#ffffff;fill-opacity:1;stroke:#000000;stroke-width:0.264583"
       d="m 8.6237629,6.027539 c 0.041147,-0.00428 0.082852,0.00374 0.1240234,0 0.027895,-0.00254 0.055427,-0.011994 0.082682,-0.016536 0.062465,-0.010411 0.1513465,0 0.214974,0"
       id="path18" />
  </g>
</svg>
