<?xml version="1.0" encoding="UTF-8" standalone="no"?>
<!-- Created with Inkscape (http://www.inkscape.org/) -->

<svg
   width="80"
   height="32"
   viewBox="0 0 21.166666 8.4666666"
   version="1.1"
   id="svg1"
   inkscape:version="1.4.2 (ebf0e940d0, 2025-05-08)"
   sodipodi:docname="Ground.svg"
   xmlns:inkscape="http://www.inkscape.org/namespaces/inkscape"
   xmlns:sodipodi="http://sodipodi.sourceforge.net/DTD/sodipodi-0.dtd"
   xmlns="http://www.w3.org/2000/svg"
   xmlns:svg="http://www.w3.org/2000/svg">
  <sodipodi:namedview
     id="namedview1"
     pagecolor="#b4b4b4"
     bordercolor="#000000"
     borderopacity="0.25"
     inkscape:showpageshadow="2"
     inkscape:pageopacity="0.0"
     inkscape:pagecheckerboard="0"
     inkscape:deskcolor="#d1d1d1"
     inkscape:document-units="px"
     inkscape:zoom="16.705275"
     inkscape:cx="9.308437"
     inkscape:cy="30.319764"
     inkscape:window-width="1920"
     inkscape:window-height="1008"
     inkscape:window-x="0"
     inkscape:window-y="0"
     inkscape:window-maximized="1"
     inkscape:current-layer="layer1" />
  <defs
     id="defs1" />
  <g
     inkscape:label="Slānis 1"
     inkscape:groupmode="layer"
     id="layer1">
    <rect
       style="fill:#5e65c8;fill-opacity:1;stroke:none;stroke-width:0.476195;stroke-linecap:square;paint-order:stroke fill markers"
       id="rect1"
       width="4.2333331"
       height="4.2333331"
       x="0"
       y="0" />
    <rect
       style="fill:#b1ac83;fill-opacity:1;stroke:none;stroke-width:0.476195;stroke-linecap:square;paint-order:stroke fill markers"
       id="rect1-3"
       width="4.2333331"
       height="4.2333331"
       x="4.2333331"
       y="0" />
    <rect
       style="fill:#6ea442;fill-opacity:1;stroke:none;stroke-width:0.476195;stroke-linecap:square;paint-order:stroke fill markers"
       id="rect1-3-1"
       width="4.2333331"
       height="4.2333331"
       x="8.4666662"
       y="0" />
    <rect
       style="fill:#ffffff;fill-opacity:0.504278;stroke:none;stroke-width:0.476195;stroke-linecap:square;paint-order:stroke fill markers"
       id="rect1-3-1-3"
       width="4.2333331"
       height="4.2333331"
       x="12.7"
       y="0" />
    <path
       style="fill:#ff0000;fill-opacity:0.504278;stroke-width:0.264583"
       id="path1"
       d="M 1.8579385,4.533434 C 1.8201535,4.526514 1.7954345,4.52016 1.7537379,4.524094 1.6558529,4.533334 1.5616783,4.571052 1.4802181,4.6249426 c -0.029275,0.019367 -0.055786,0.042617 -0.083679,0.063925 -0.058747,0.062843 -0.079695,0.07959 -0.1261124,0.1504317 -0.016475,0.025143 -0.030519,0.051819 -0.04474,0.078304 -0.012038,0.022418 -0.02275,0.045523 -0.034005,0.068343 -0.010538,0.021368 -0.019407,0.043621 -0.031374,0.064223 -0.010935,0.018825 -0.024759,0.035813 -0.037139,0.05372 -0.014768,0.015978 -0.02896,0.032506 -0.044304,0.047931 -0.021047,0.021156 -0.044258,0.040126 -0.064816,0.06176 -0.0213644,0.022482 -0.0408267,0.046702 -0.0608005,0.070428 -0.0547098,0.064987 -0.1017914,0.1296239 -0.14967013,0.199593 -0.0403799,0.066844 -0.0729278,0.1388057 -0.0910229,0.2150647 -0.0122293,0.051539 -0.0130191,0.084791 -0.0194807,0.135356 -0.002305,0.018029 -0.00521,0.035975 -0.007816,0.053963 -0.001741,0.017119 -0.002934,0.034301 -0.005227,0.051354 -0.0109577,0.081514 -0.008175,0.027347 -0.0154287,0.1121064 -0.002662,0.031101 -0.00461,0.088788 -0.006819,0.1196324 -0.001707,0.02382 -0.004117,0.047583 -0.006175,0.071375 -0.0149516,0.1607352 -0.0419028,0.326358 1.8148e-4,0.4856837 0.009194,0.034808 0.0254839,0.067344 0.0382257,0.1010158 0.042428,0.076876 0.0961807,0.1473102 0.16599786,0.201385 0.0271625,0.021037 0.0588846,0.034264 0.0873446,0.053082 -0.001405,3.175e-4 -0.003628,-3.44e-4 -0.004217,9.525e-4 -0.009807,0.021921 -9.0752e-4,0.052893 0.003195,0.072238 0.009505,0.044812 0.0256604,0.090553 0.0470611,0.1309881 0.0114363,0.021609 0.0262966,0.041222 0.039445,0.061833 0.019873,0.022339 0.03749,0.046909 0.059618,0.067016 0.071091,0.064597 0.1581872,0.1002993 0.2498872,0.1240404 0.032088,0.00831 0.064324,0.016986 0.097265,0.020669 0.073048,0.00816 0.1466737,0.00986 0.2200106,0.014785 0.1594356,-0.00204 0.321691,0.00655 0.4773625,-0.035935 C 2.2110288,7.5189073 2.2583497,7.4923153 2.329817,7.4578373 2.4217822,7.4219455 2.4920066,7.349931 2.5800513,7.3074286 2.6078796,7.2939957 2.6801934,7.2674217 2.7070354,7.2572609 2.82546,7.225218 2.9404858,7.1818068 3.038425,7.10616 3.074972,7.077932 3.124716,7.026523 3.1568437,6.9946945 c 0.069799,-0.076952 0.1257351,-0.166547 0.1564847,-0.2662663 0.012128,-0.039336 0.022069,-0.093275 0.030267,-0.1336797 0.016031,-0.079797 0.038039,-0.1583973 0.048795,-0.239245 0.00551,-0.041447 0.00855,-0.098478 0.011277,-0.1403387 0.023238,-0.08747 0.043807,-0.1755801 0.067404,-0.2629537 0.00651,-0.024109 0.013975,-0.047979 0.019621,-0.072306 0.00582,-0.025048 0.00983,-0.050483 0.014743,-0.075725 C 3.5275549,5.6827017 3.5265415,5.5666063 3.4844543,5.4491376 3.4628881,5.388942 3.4408538,5.3585715 3.4082664,5.3050595 3.3501973,5.2105229 3.2529825,5.1576059 3.1680967,5.0915543 3.1658478,5.0898345 3.1351326,5.0667602 3.1313271,5.0624959 3.114907,5.0440968 3.1048486,5.0207277 3.0890998,5.0017515 3.0489223,4.953341 3.0364237,4.9473185 2.9871183,4.9072873 2.9288219,4.8672792 2.8603998,4.850136 2.7948377,4.8267892 c -0.025726,-0.00916 -0.05108,-0.019346 -0.076804,-0.028512 -0.013189,-0.00484 -0.026308,-0.00987 -0.039566,-0.014515 -0.033318,-0.011663 -0.037158,-0.010298 -0.068509,-0.026794 -0.047901,-0.025204 -0.038954,-0.027357 -0.091509,-0.04781 -0.017953,-0.00699 -0.036724,-0.011658 -0.055086,-0.017486 -0.044598,-0.00656 -0.087313,-0.023942 -0.1329289,-0.022984 -0.00954,2.008e-4 -0.028462,0.00127 -0.026589,0.010626 0.00127,0.00635 0.0063,0.011316 0.00945,0.016976 0.00647,0.011978 0.012949,0.023955 0.019423,0.035934 0.00201,0.00812 0.00266,0.016703 0.00603,0.02436 0.00199,0.00452 5.86e-5,-0.01012 -0.00178,-0.0147 -0.012312,-0.030632 -0.023681,-0.061967 -0.040459,-0.090399 -0.019105,-0.032374 -0.047885,-0.049378 -0.076857,-0.07064 -0.012266,-0.00651 -0.024116,-0.013861 -0.036798,-0.019513 -0.01119,-0.00499 -0.023116,-0.00813 -0.034629,-0.012319 -0.038914,-0.014161 -0.078508,-0.025892 -0.1176732,-0.039383 -0.023997,-0.00622 -0.025141,-0.00711 -0.047514,-0.010962 -0.00449,-7.673e-4 -0.00933,-1.717e-4 -0.01355,-0.0019 -0.00592,-0.00241 -0.01053,-0.00731 -0.016201,-0.010258 -0.026303,-0.013674 -0.029925,-0.013158 -0.058968,-0.021706 -0.015869,-0.0022 -0.034985,-0.00668 -0.051547,-0.00342 -0.00293,5.821e-4 -0.00542,0.00268 -0.00762,0.0047 -0.010617,0.00978 0.00656,0.013758 0.014955,0.021582 0.00291,0.00271 -0.0061,-0.00511 -0.00914,-0.00766 -0.014523,-0.013843 -0.2102818,0.1915481 -0.1957585,0.2053903 v 0 c 0.021536,0.011404 0.00145,1.206e-4 0.041643,0.031425 0.023706,0.01846 0.050493,0.033018 0.080767,0.036259 0.00732,3.968e-4 0.014637,0.00106 0.02197,0.00122 0.01236,2.509e-4 0.03338,-0.00143 0.045528,8.467e-4 0.011804,0.0022 0.022598,0.010893 0.034095,0.014274 0.020731,0.010152 0.038063,0.025342 0.057794,0.037248 0.010599,0.0064 0.021698,0.011922 0.032605,0.017777 0.043758,0.023482 0.023705,0.014571 0.071203,0.030274 0.00937,3.968e-4 0.019155,0.00401 0.028108,0.00122 0.033448,-0.010425 -0.009,-0.111883 -0.00264,-0.076285 0.00266,0.014891 0.00295,0.030413 0.008,0.04467 0.00686,0.019352 0.018271,0.036777 0.027406,0.055166 0.00922,0.011298 0.01766,0.023289 0.027673,0.033896 0.00437,0.00463 0.045682,0.040593 0.052378,0.045195 0.034716,0.023855 0.075386,0.032365 0.112963,0.050377 0.043826,0.014325 0.055976,0.019688 0.1026946,0.028834 0.016426,0.00321 0.033288,0.00389 0.049688,0.00724 0.034147,0.00696 0.06582,0.021336 0.098725,0.032207 0.021552,0.010176 0.043684,0.019177 0.064752,0.030318 0.012003,0.00635 0.023288,0.013975 0.035108,0.020659 0.039076,0.022095 0.078835,0.042919 0.1220726,0.055794 0.00111,2.1e-4 0.050498,0.00891 0.056454,0.012041 0.045393,0.02385 0.067829,0.080827 0.1050001,0.1142373 0.026837,0.025302 0.054336,0.050517 0.079716,0.077304 0.023487,0.024789 0.023894,0.027764 0.044918,0.053917 0.00843,0.010491 0.017087,0.020804 0.02563,0.031207 0.026292,0.043164 0.020743,0.031798 0.042541,0.07629 0.00486,0.00992 0.011184,0.019346 0.014094,0.030008 0.013078,0.047896 -3.439e-4,0.097288 -0.013205,0.1432777 -0.048143,0.1545195 -0.088411,0.3132796 -0.09347,0.4758364 -0.00441,0.1134441 -0.010247,0.2272197 -0.034519,0.338495 -0.00233,0.013084 -0.00357,0.026411 -0.00699,0.039253 -0.00611,0.022966 -0.019873,0.050481 -0.030633,0.071116 -0.017769,0.034079 -0.036664,0.065804 -0.06821,0.089022 -0.01225,0.00615 -0.023971,0.013486 -0.036751,0.018439 -0.1536285,0.05953 0.040676,-0.02709 -0.1364536,0.048001 -0.075867,0.032163 -0.095242,0.043767 -0.165282,0.08756 -0.025211,0.015764 -0.049749,0.032579 -0.074623,0.048868 -0.02065,0.013557 -0.041254,0.027183 -0.061951,0.040668 -0.027049,0.017621 -0.070858,0.04785 -0.1023394,0.060817 -0.017144,0.00706 -0.035335,0.011285 -0.053202,0.01624 -0.030905,0.00858 -0.094625,0.023297 -0.1245485,0.030371 -0.1539794,0.016481 0.010808,1.609e-4 -0.1629807,0.012727 -0.1410463,0.010197 -0.2812952,0.030593 -0.4227475,0.035251 0.00397,0.00565 0.018064,0.013816 0.011913,0.016965 -0.023272,0.011922 -0.051195,0.010679 -0.076744,0.016245 -0.017094,0.00373 -0.034143,0.00765 -0.05118,0.011631 -0.010687,0.00249 -0.021287,0.00536 -0.031988,0.0078 -0.00632,0.00143 -0.01259,0.00424 -0.019055,0.00382 -0.00562,-3.704e-4 -0.010515,-0.00405 -0.015772,-0.00607 -0.012367,-0.021167 -0.027559,-0.046216 -0.037918,-0.068224 -0.00744,-0.015796 -0.013298,-0.032291 -0.020435,-0.048223 -0.0076,-0.01696 -0.016126,-0.033489 -0.023762,-0.050431 -0.010369,-0.023003 -0.018536,-0.04704 -0.030247,-0.069389 -0.011625,-0.022185 -0.026387,-0.042583 -0.03958,-0.063875 -0.013041,-0.014288 -0.025602,-0.02903 -0.039122,-0.042866 -0.00773,-0.00791 -0.016524,-0.014706 -0.024561,-0.022302 -0.00578,-0.00546 -0.011118,-0.011369 -0.01687,-0.016857 -0.00428,-0.00409 -0.00983,-0.00701 -0.013227,-0.011859 -0.00828,-0.011811 -0.00833,-0.052532 -0.00863,-0.055897 -0.00222,-0.021042 -0.00412,-0.042121 -0.00666,-0.063127 -0.00325,-0.026896 -0.0079,-0.053622 -0.01072,-0.080567 -0.00337,-0.032253 -0.0042,-0.064746 -0.00785,-0.096968 -0.00974,-0.085909 -0.026708,-0.1709134 -0.04321,-0.2556999 -0.0025,-0.018269 -0.00646,-0.036397 -0.00751,-0.054807 -0.00169,-0.02956 0.00358,-0.072457 0.00626,-0.1017043 0.00335,-0.036474 0.00515,-0.07308 0.00855,-0.1095488 0.00165,-0.017711 0.00427,-0.035319 0.00641,-0.052979 0.00303,-0.046735 0.00232,-0.05018 0.00841,-0.093967 0.0011,-0.00791 0.00145,-0.016073 0.00412,-0.023601 0.013761,-0.038842 0.055433,-0.061294 0.081876,-0.089494 0.065349,-0.060864 0.1317743,-0.1219933 0.1884594,-0.1913017 0.063336,-0.07744 0.061422,-0.084296 0.1088216,-0.1713595 0.014962,-0.027482 0.030026,-0.054908 0.04504,-0.082362 0.020399,-0.044686 0.034858,-0.080041 0.059327,-0.1216301 0.036644,-0.062285 0.084166,-0.1151522 0.1462065,-0.1530688 0.018635,-0.01129 0.036849,-0.023302 0.055904,-0.033868 0.02123,-0.011771 0.043469,-0.02164 0.064868,-0.033101 0.070478,-0.03775 0.1382625,-0.080339 0.1962782,-0.1358847 0.018169,-0.01044 -0.1294973,-0.2673935 -0.1476666,-0.256952 z" />
  </g>
</svg>
